<?xml version="1.0" standalone="no"?>
<!DOCTYPE svg PUBLIC "-//W3C//DTD SVG 20010904//EN"
 "http://www.w3.org/TR/2001/REC-SVG-20010904/DTD/svg10.dtd">
<svg version="1.0" xmlns="http://www.w3.org/2000/svg"
 width="128.000000pt" height="128.000000pt" viewBox="0 0 128.000000 128.000000"
 preserveAspectRatio="xMidYMid meet">

<g transform="translate(0.000000,128.000000) scale(0.100000,-0.100000)"
fill="#000000" stroke="none">
<path d="M0 640 l0 -640 640 0 640 0 0 640 0 640 -640 0 -640 0 0 -640z m810
150 l0 -240 -175 0 -175 0 0 240 0 240 175 0 175 0 0 -240z m-377 -406 l25
-35 22 35 c25 41 59 52 39 14 -7 -13 -20 -35 -30 -50 -11 -14 -19 -42 -19 -62
0 -25 -4 -36 -15 -36 -11 0 -15 11 -15 38 0 21 -6 46 -13 57 -47 69 -50 75
-34 75 9 0 27 -16 40 -36z m388 26 c23 -13 26 -62 4 -80 -12 -10 -11 -17 11
-46 24 -31 24 -34 8 -34 -11 0 -29 16 -42 35 -28 44 -42 44 -42 0 0 -24 -5
-35 -15 -35 -12 0 -15 15 -15 78 0 43 3 82 7 85 10 11 62 8 84 -3z m-475 -76
c39 -86 38 -84 21 -84 -7 0 -24 24 -39 52 l-25 53 -27 -53 c-14 -28 -33 -52
-41 -52 -11 0 -5 20 25 80 22 44 43 80 46 80 3 0 21 -34 40 -76z m274 72 c0
-2 16 -38 35 -80 27 -60 31 -76 19 -76 -9 0 -25 21 -37 50 -12 27 -25 50 -28
50 -3 0 -16 -22 -29 -50 -13 -27 -29 -50 -37 -50 -7 0 -13 2 -13 5 0 13 75
155 82 155 4 0 8 -2 8 -4z m396 -72 c39 -86 38 -84 21 -84 -7 0 -24 24 -39 52
l-25 53 -27 -53 c-14 -28 -33 -52 -41 -52 -11 0 -5 20 25 80 22 44 43 80 46
80 3 0 21 -34 40 -76z"/>
<path d="M530 790 l0 -170 105 0 105 0 0 170 0 170 -105 0 -105 0 0 -170z
m186 -78 c-10 -9 -33 17 -51 58 -10 22 -21 40 -25 40 -4 0 -17 -22 -30 -50
-13 -27 -29 -50 -37 -50 -18 0 -18 1 28 91 l40 81 40 -83 c22 -45 37 -84 35
-87z"/>
<path d="M760 370 c0 -15 7 -20 25 -20 18 0 25 5 25 20 0 15 -7 20 -25 20 -18
0 -25 -5 -25 -20z"/>
</g>
</svg>
