<?xml version="1.0" encoding="UTF-8" standalone="no"?>
<!DOCTYPE svg PUBLIC "-//W3C//DTD SVG 1.1//EN"
 "http://www.w3.org/Graphics/SVG/1.1/DTD/svg11.dtd">
<!-- Generated by graphviz version 2.40.1 (20161225.0304)
 -->
<!-- Title: UmlClassDiagram Pages: 1 -->
<svg width="2551pt" height="1190pt"
 viewBox="0.00 0.00 2551.26 1190.40" xmlns="http://www.w3.org/2000/svg" xmlns:xlink="http://www.w3.org/1999/xlink">
<g id="graph0" class="graph" transform="scale(1 1) rotate(0) translate(4 1186.4)">
<title>UmlClassDiagram</title>
<polygon fill="#ffffff" stroke="transparent" points="-4,4 -4,-1186.4 2547.2578,-1186.4 2547.2578,4 -4,4"/>
<!-- 0 -->
<g id="node1" class="node">
<title>0</title>
<polygon fill="#f2f2f2" stroke="#000000" points="452.8081,-.5 452.8081,-326.9 1256.5713,-326.9 1256.5713,-.5 452.8081,-.5"/>
<text text-anchor="middle" x="854.6897" y="-310.3" font-family="Times,serif" font-size="14.00" fill="#000000">AyaraController</text>
<polyline fill="none" stroke="#000000" points="452.8081,-302.1 1256.5713,-302.1 "/>
<text text-anchor="start" x="460.8081" y="-285.5" font-family="Times,serif" font-size="14.00" fill="#000000">Public:</text>
<text text-anchor="start" x="460.8081" y="-268.7" font-family="Times,serif" font-size="14.00" fill="#000000"> &#160;&#160;VERSION: uint256</text>
<text text-anchor="start" x="460.8081" y="-251.9" font-family="Times,serif" font-size="14.00" fill="#000000"> &#160;&#160;salt: bytes32</text>
<text text-anchor="start" x="460.8081" y="-235.1" font-family="Times,serif" font-size="14.00" fill="#000000"> &#160;&#160;chainId: uint256</text>
<polyline fill="none" stroke="#000000" points="452.8081,-226.9 1256.5713,-226.9 "/>
<text text-anchor="start" x="460.8081" y="-210.3" font-family="Times,serif" font-size="14.00" fill="#000000">Internal:</text>
<text text-anchor="start" x="460.8081" y="-193.5" font-family="Times,serif" font-size="14.00" fill="#000000"> &#160;&#160;&#160;_executeUserOperationThisChain(owner_: address, wallet_: address, feeData_: FeeData, transaction_: Transaction)</text>
<text text-anchor="start" x="460.8081" y="-176.7" font-family="Times,serif" font-size="14.00" fill="#000000"> &#160;&#160;&#160;_executeUserOperationOtherChain(owner_: address, wallet_: address, feeData_: FeeData, transaction_: Transaction)</text>
<text text-anchor="start" x="460.8081" y="-159.9" font-family="Times,serif" font-size="14.00" fill="#000000"> &#160;&#160;&#160;_ccipReceive(ccipMessage: Client.Any2EVMMessage)</text>
<text text-anchor="start" x="460.8081" y="-143.1" font-family="Times,serif" font-size="14.00" fill="#000000">External:</text>
<text text-anchor="start" x="460.8081" y="-126.3" font-family="Times,serif" font-size="14.00" fill="#000000"> &#160;&#160;&#160;&lt;&lt;payable&gt;&gt; executeUserOperation(owner_: address, wallet_: address, feeData_: FeeData, transaction_: Transaction)</text>
<text text-anchor="start" x="460.8081" y="-109.5" font-family="Times,serif" font-size="14.00" fill="#000000"> &#160;&#160;&#160;calculateWalletAddress(owner_: address): address</text>
<text text-anchor="start" x="460.8081" y="-92.7" font-family="Times,serif" font-size="14.00" fill="#000000"> &#160;&#160;&#160;createWallet(owner_: address, callbacks_: bytes[]): address</text>
<text text-anchor="start" x="460.8081" y="-75.9" font-family="Times,serif" font-size="14.00" fill="#000000">Public:</text>
<text text-anchor="start" x="460.8081" y="-59.1" font-family="Times,serif" font-size="14.00" fill="#000000"> &#160;&#160;&#160;&lt;&lt;payable&gt;&gt; addFundsToWallet(owner_: address, token_: address, amount_: uint256)</text>
<text text-anchor="start" x="460.8081" y="-42.3" font-family="Times,serif" font-size="14.00" fill="#000000"> &#160;&#160;&#160;&lt;&lt;event&gt;&gt; OperationExecuted(owner: address, wallet: address, to: address, value: uint256, data: bytes, signature: bytes)</text>
<text text-anchor="start" x="460.8081" y="-25.5" font-family="Times,serif" font-size="14.00" fill="#000000"> &#160;&#160;&#160;&lt;&lt;event&gt;&gt; OperationExecutionSent(owner: address, wallet: address, to: address, destinationChainId: uint64, data: bytes, signature: bytes)</text>
<text text-anchor="start" x="460.8081" y="-8.7" font-family="Times,serif" font-size="14.00" fill="#000000"> &#160;&#160;&#160;constructor(initialOwner_: address, salt_: bytes32, chainId_: uint256, gasTokens_: address[], link_: address, router_: address)</text>
</g>
<!-- 1 -->
<g id="node2" class="node">
<title>1</title>
<polygon fill="#f2f2f2" stroke="#000000" points="43.5792,-363.9 43.5792,-673.5 525.8002,-673.5 525.8002,-363.9 43.5792,-363.9"/>
<text text-anchor="middle" x="284.6897" y="-656.9" font-family="Times,serif" font-size="14.00" fill="#000000">AyaraGasBank</text>
<polyline fill="none" stroke="#000000" points="43.5792,-648.7 525.8002,-648.7 "/>
<text text-anchor="start" x="51.5792" y="-632.1" font-family="Times,serif" font-size="14.00" fill="#000000">Private:</text>
<text text-anchor="start" x="51.5792" y="-615.3" font-family="Times,serif" font-size="14.00" fill="#000000"> &#160;&#160;userGasData: mapping(address=&gt;UserGasData)</text>
<text text-anchor="start" x="51.5792" y="-598.5" font-family="Times,serif" font-size="14.00" fill="#000000">Public:</text>
<text text-anchor="start" x="51.5792" y="-581.7" font-family="Times,serif" font-size="14.00" fill="#000000"> &#160;&#160;isGasToken: mapping(address=&gt;bool)</text>
<polyline fill="none" stroke="#000000" points="43.5792,-573.5 525.8002,-573.5 "/>
<text text-anchor="start" x="51.5792" y="-556.9" font-family="Times,serif" font-size="14.00" fill="#000000">Internal:</text>
<text text-anchor="start" x="51.5792" y="-540.1" font-family="Times,serif" font-size="14.00" fill="#000000"> &#160;&#160;&#160;_modifyGasTokens(gasTokens_: address[], enabled_: bool)</text>
<text text-anchor="start" x="51.5792" y="-523.3" font-family="Times,serif" font-size="14.00" fill="#000000"> &#160;&#160;&#160;_transferAndFundWallet(owner_: address, token_: address, amount_: uint256)</text>
<text text-anchor="start" x="51.5792" y="-506.5" font-family="Times,serif" font-size="14.00" fill="#000000"> &#160;&#160;&#160;_chargeFee(owner_: address, feeData_: FeeData)</text>
<text text-anchor="start" x="51.5792" y="-489.7" font-family="Times,serif" font-size="14.00" fill="#000000">External:</text>
<text text-anchor="start" x="51.5792" y="-472.9" font-family="Times,serif" font-size="14.00" fill="#000000"> &#160;&#160;&#160;getUserGasData(owner_: address, token_: address): (gasData: GasData)</text>
<text text-anchor="start" x="51.5792" y="-456.1" font-family="Times,serif" font-size="14.00" fill="#000000"> &#160;&#160;&#160;modifyGasTokens(gasTokens_: address[], enabled_: bool)</text>
<text text-anchor="start" x="51.5792" y="-439.3" font-family="Times,serif" font-size="14.00" fill="#000000">Public:</text>
<text text-anchor="start" x="51.5792" y="-422.5" font-family="Times,serif" font-size="14.00" fill="#000000"> &#160;&#160;&#160;&lt;&lt;event&gt;&gt; WalletGasFunded(owner: address, token: address, amount: uint256)</text>
<text text-anchor="start" x="51.5792" y="-405.7" font-family="Times,serif" font-size="14.00" fill="#000000"> &#160;&#160;&#160;&lt;&lt;event&gt;&gt; WalletGasCharged(owner: address, token: address, amount: uint256)</text>
<text text-anchor="start" x="51.5792" y="-388.9" font-family="Times,serif" font-size="14.00" fill="#000000"> &#160;&#160;&#160;&lt;&lt;event&gt;&gt; GasTokensModified(tokens: address[], enabled: bool)</text>
<text text-anchor="start" x="51.5792" y="-372.1" font-family="Times,serif" font-size="14.00" fill="#000000"> &#160;&#160;&#160;constructor(gasTokens_: address[], initialOwner_: address)</text>
</g>
<!-- 0&#45;&gt;1 -->
<g id="edge4" class="edge">
<title>0&#45;&gt;1</title>
<path fill="none" stroke="#000000" d="M592.629,-326.9132C578.9994,-335.4019 565.2993,-343.9344 551.6546,-352.4324"/>
<polygon fill="none" stroke="#000000" points="545.8542,-343.675 525.9401,-368.4476 556.9561,-361.5005 545.8542,-343.675"/>
</g>
<!-- 2 -->
<g id="node5" class="node">
<title>2</title>
<polygon fill="#f2f2f2" stroke="#000000" points="1454.9497,-447.9 1454.9497,-589.5 2168.4297,-589.5 2168.4297,-447.9 1454.9497,-447.9"/>
<text text-anchor="middle" x="1811.6897" y="-572.9" font-family="Times,serif" font-size="14.00" fill="#000000">AyaraMessageHandler</text>
<polyline fill="none" stroke="#000000" points="1454.9497,-564.7 2168.4297,-564.7 "/>
<text text-anchor="start" x="1462.9497" y="-548.1" font-family="Times,serif" font-size="14.00" fill="#000000">Public:</text>
<text text-anchor="start" x="1462.9497" y="-531.3" font-family="Times,serif" font-size="14.00" fill="#000000"> &#160;&#160;chainIdToChainSelector: mapping(uint64=&gt;uint64)</text>
<polyline fill="none" stroke="#000000" points="1454.9497,-523.1 2168.4297,-523.1 "/>
<text text-anchor="start" x="1462.9497" y="-506.5" font-family="Times,serif" font-size="14.00" fill="#000000">Internal:</text>
<text text-anchor="start" x="1462.9497" y="-489.7" font-family="Times,serif" font-size="14.00" fill="#000000"> &#160;&#160;&#160;_routeMessage(owner_: address, wallet: address, destinationChainId: uint64, to_: address, data_: bytes, signature_: bytes)</text>
<text text-anchor="start" x="1462.9497" y="-472.9" font-family="Times,serif" font-size="14.00" fill="#000000">Public:</text>
<text text-anchor="start" x="1462.9497" y="-456.1" font-family="Times,serif" font-size="14.00" fill="#000000"> &#160;&#160;&#160;constructor(router_: address, link_: address)</text>
</g>
<!-- 0&#45;&gt;2 -->
<g id="edge5" class="edge">
<title>0&#45;&gt;2</title>
<path fill="none" stroke="#000000" d="M1256.8363,-324.7193C1259.7951,-325.6249 1262.7466,-326.5187 1265.6897,-327.4 1341.7586,-350.1795 1364.8219,-339.9596 1440.6897,-363.4 1504.9064,-383.2406 1573.2834,-410.1172 1633.6131,-435.9335"/>
<polygon fill="none" stroke="#000000" points="1629.4709,-445.582 1661.1716,-447.8889 1637.8286,-426.3167 1629.4709,-445.582"/>
</g>
<!-- 5 -->
<g id="node9" class="node">
<title>5</title>
<polygon fill="#f2f2f2" stroke="#000000" points="871.1381,-710.5 871.1381,-986.5 1420.2413,-986.5 1420.2413,-710.5 871.1381,-710.5"/>
<text text-anchor="middle" x="1145.6897" y="-969.9" font-family="Times,serif" font-size="14.00" fill="#000000">AyaraWalletInstance</text>
<polyline fill="none" stroke="#000000" points="871.1381,-961.7 1420.2413,-961.7 "/>
<text text-anchor="start" x="879.1381" y="-945.1" font-family="Times,serif" font-size="14.00" fill="#000000">Public:</text>
<text text-anchor="start" x="879.1381" y="-928.3" font-family="Times,serif" font-size="14.00" fill="#000000"> &#160;&#160;VERSION: uint256</text>
<text text-anchor="start" x="879.1381" y="-911.5" font-family="Times,serif" font-size="14.00" fill="#000000"> &#160;&#160;ownerAddress: address</text>
<text text-anchor="start" x="879.1381" y="-894.7" font-family="Times,serif" font-size="14.00" fill="#000000"> &#160;&#160;controllerAddress: address</text>
<text text-anchor="start" x="879.1381" y="-877.9" font-family="Times,serif" font-size="14.00" fill="#000000"> &#160;&#160;chainId: uint256</text>
<text text-anchor="start" x="879.1381" y="-861.1" font-family="Times,serif" font-size="14.00" fill="#000000"> &#160;&#160;nonce: uint256</text>
<polyline fill="none" stroke="#000000" points="871.1381,-852.9 1420.2413,-852.9 "/>
<text text-anchor="start" x="879.1381" y="-836.3" font-family="Times,serif" font-size="14.00" fill="#000000">Private:</text>
<text text-anchor="start" x="879.1381" y="-819.5" font-family="Times,serif" font-size="14.00" fill="#000000"> &#160;&#160;&#160;_execute(to: address, value: uint256, data: bytes): (bool, bytes)</text>
<text text-anchor="start" x="879.1381" y="-802.7" font-family="Times,serif" font-size="14.00" fill="#000000">External:</text>
<text text-anchor="start" x="879.1381" y="-785.9" font-family="Times,serif" font-size="14.00" fill="#000000"> &#160;&#160;&#160;&lt;&lt;payable&gt;&gt; null()</text>
<text text-anchor="start" x="879.1381" y="-769.1" font-family="Times,serif" font-size="14.00" fill="#000000"> &#160;&#160;&#160;&lt;&lt;payable&gt;&gt; execute(to: address, value: uint256, data: bytes, signature: bytes): (bool, bytes)</text>
<text text-anchor="start" x="879.1381" y="-752.3" font-family="Times,serif" font-size="14.00" fill="#000000">Public:</text>
<text text-anchor="start" x="879.1381" y="-735.5" font-family="Times,serif" font-size="14.00" fill="#000000"> &#160;&#160;&#160;&lt;&lt;modifier&gt;&gt; onlyOwnerOrValidSignature(data: bytes, signature: bytes)</text>
<text text-anchor="start" x="879.1381" y="-718.7" font-family="Times,serif" font-size="14.00" fill="#000000"> &#160;&#160;&#160;constructor(ownerAddress_: address, controllerAddress_: address, chainId_: uint256)</text>
</g>
<!-- 0&#45;&gt;5 -->
<g id="edge9" class="edge">
<title>0&#45;&gt;5</title>
<path fill="none" stroke="#000000" stroke-dasharray="5,2" d="M1251.9888,-327.0638C1290.6635,-344.5668 1317.1313,-358.0037 1320.6897,-363.4 1396.6834,-478.6442 1373.6082,-546.5014 1320.6897,-674 1316.7323,-683.5346 1311.973,-692.8184 1306.5974,-701.8143"/>
<polygon fill="#000000" stroke="#000000" points="1303.5945,-700.0152 1301.2607,-710.3498 1309.5299,-703.7262 1303.5945,-700.0152"/>
</g>
<!-- 6 -->
<g id="node10" class="node">
<title>6</title>
<polygon fill="#f2f2f2" stroke="#000000" points="581.3666,-431.1 581.3666,-606.3 1128.0128,-606.3 1128.0128,-431.1 581.3666,-431.1"/>
<text text-anchor="middle" x="854.6897" y="-589.7" font-family="Times,serif" font-size="14.00" fill="#000000">AyaraWalletManager</text>
<polyline fill="none" stroke="#000000" points="581.3666,-581.5 1128.0128,-581.5 "/>
<text text-anchor="start" x="589.3666" y="-564.9" font-family="Times,serif" font-size="14.00" fill="#000000">Public:</text>
<text text-anchor="start" x="589.3666" y="-548.1" font-family="Times,serif" font-size="14.00" fill="#000000"> &#160;&#160;wallets: mapping(address=&gt;address)</text>
<polyline fill="none" stroke="#000000" points="581.3666,-539.9 1128.0128,-539.9 "/>
<text text-anchor="start" x="589.3666" y="-523.3" font-family="Times,serif" font-size="14.00" fill="#000000">Internal:</text>
<text text-anchor="start" x="589.3666" y="-506.5" font-family="Times,serif" font-size="14.00" fill="#000000"> &#160;&#160;&#160;_createWallet(owner_: address, chainId_: uint256, salt_: bytes32): address</text>
<text text-anchor="start" x="589.3666" y="-489.7" font-family="Times,serif" font-size="14.00" fill="#000000"> &#160;&#160;&#160;_createWallet(owner_: address, callbacks_: bytes[], chainId: uint256, salt: bytes32): address</text>
<text text-anchor="start" x="589.3666" y="-472.9" font-family="Times,serif" font-size="14.00" fill="#000000"> &#160;&#160;&#160;_calculateWalletAddress(owner_: address, chainId: uint256, salt: bytes32): address</text>
<text text-anchor="start" x="589.3666" y="-456.1" font-family="Times,serif" font-size="14.00" fill="#000000">Public:</text>
<text text-anchor="start" x="589.3666" y="-439.3" font-family="Times,serif" font-size="14.00" fill="#000000"> &#160;&#160;&#160;&lt;&lt;event&gt;&gt; WalletCreated(owner: address, wallet: address)</text>
</g>
<!-- 0&#45;&gt;6 -->
<g id="edge6" class="edge">
<title>0&#45;&gt;6</title>
<path fill="none" stroke="#000000" d="M854.6897,-326.9132C854.6897,-351.8598 854.6897,-377.1852 854.6897,-400.9013"/>
<polygon fill="none" stroke="#000000" points="844.1898,-400.9841 854.6897,-430.9841 865.1898,-400.9841 844.1898,-400.9841"/>
</g>
<!-- 9 -->
<g id="node13" class="node">
<title>9</title>
<polygon fill="#f2f2f2" stroke="#000000" points="1663.5617,-1023.5 1663.5617,-1181.9 1767.8177,-1181.9 1767.8177,-1023.5 1663.5617,-1023.5"/>
<text text-anchor="middle" x="1715.6897" y="-1165.3" font-family="Times,serif" font-size="14.00" fill="#000000">&lt;&lt;Struct&gt;&gt;</text>
<text text-anchor="middle" x="1715.6897" y="-1148.5" font-family="Times,serif" font-size="14.00" fill="#000000">Message</text>
<polyline fill="none" stroke="#000000" points="1663.5617,-1140.3 1767.8177,-1140.3 "/>
<text text-anchor="start" x="1671.5617" y="-1123.7" font-family="Times,serif" font-size="14.00" fill="#000000">owner: address</text>
<text text-anchor="start" x="1671.5617" y="-1106.9" font-family="Times,serif" font-size="14.00" fill="#000000">wallet: address</text>
<text text-anchor="start" x="1671.5617" y="-1090.1" font-family="Times,serif" font-size="14.00" fill="#000000">to: address</text>
<text text-anchor="start" x="1671.5617" y="-1073.3" font-family="Times,serif" font-size="14.00" fill="#000000">data: bytes</text>
<text text-anchor="start" x="1671.5617" y="-1056.5" font-family="Times,serif" font-size="14.00" fill="#000000">signature: bytes</text>
<polyline fill="none" stroke="#000000" points="1663.5617,-1048.3 1767.8177,-1048.3 "/>
<text text-anchor="middle" x="1715.6897" y="-1031.7" font-family="Times,serif" font-size="14.00" fill="#000000"> </text>
</g>
<!-- 0&#45;&gt;9 -->
<g id="edge10" class="edge">
<title>0&#45;&gt;9</title>
<path fill="none" stroke="#000000" stroke-dasharray="5,2" d="M1256.8088,-323.9108C1259.78,-325.0787 1262.7407,-326.242 1265.6897,-327.4 1306.9449,-343.6004 1330.0771,-329.5509 1358.6897,-363.4 1460.1998,-483.4881 1403.2121,-555.002 1429.6897,-710 1440.1519,-771.2449 1429.3403,-938.1152 1467.6897,-987 1494.5354,-1021.2208 1519.033,-1005.1367 1558.6897,-1023 1590.6291,-1037.3871 1625.4342,-1054.8644 1654.1391,-1069.7823"/>
<polygon fill="#000000" stroke="#000000" points="1652.7486,-1073.0045 1663.2332,-1074.5287 1655.9875,-1066.7989 1652.7486,-1073.0045"/>
</g>
<!-- 10 -->
<g id="node14" class="node">
<title>10</title>
<polygon fill="#f2f2f2" stroke="#000000" points="1145.8345,-439.5 1145.8345,-597.9 1311.5449,-597.9 1311.5449,-439.5 1145.8345,-439.5"/>
<text text-anchor="middle" x="1228.6897" y="-581.3" font-family="Times,serif" font-size="14.00" fill="#000000">&lt;&lt;Struct&gt;&gt;</text>
<text text-anchor="middle" x="1228.6897" y="-564.5" font-family="Times,serif" font-size="14.00" fill="#000000">Transaction</text>
<polyline fill="none" stroke="#000000" points="1145.8345,-556.3 1311.5449,-556.3 "/>
<text text-anchor="start" x="1153.8345" y="-539.7" font-family="Times,serif" font-size="14.00" fill="#000000">destinationChainId: uint64</text>
<text text-anchor="start" x="1153.8345" y="-522.9" font-family="Times,serif" font-size="14.00" fill="#000000">to: address</text>
<text text-anchor="start" x="1153.8345" y="-506.1" font-family="Times,serif" font-size="14.00" fill="#000000">value: uint256</text>
<text text-anchor="start" x="1153.8345" y="-489.3" font-family="Times,serif" font-size="14.00" fill="#000000">data: bytes</text>
<text text-anchor="start" x="1153.8345" y="-472.5" font-family="Times,serif" font-size="14.00" fill="#000000">signature: bytes</text>
<polyline fill="none" stroke="#000000" points="1145.8345,-464.3 1311.5449,-464.3 "/>
<text text-anchor="middle" x="1228.6897" y="-447.7" font-family="Times,serif" font-size="14.00" fill="#000000"> </text>
</g>
<!-- 0&#45;&gt;10 -->
<g id="edge8" class="edge">
<title>0&#45;&gt;10</title>
<path fill="none" stroke="#000000" stroke-dasharray="5,2" d="M1099.8719,-327.0531C1112.818,-338.796 1125.2033,-350.9388 1136.6897,-363.4 1154.9582,-383.2188 1171.3362,-407.2511 1185.032,-430.4282"/>
<polygon fill="#000000" stroke="#000000" points="1182.1064,-432.3605 1190.148,-439.2586 1188.1633,-428.8513 1182.1064,-432.3605"/>
</g>
<!-- 11 -->
<g id="node15" class="node">
<title>11</title>
<polygon fill="#f2f2f2" stroke="#000000" points="230.6059,-794.5 230.6059,-902.5 338.7735,-902.5 338.7735,-794.5 230.6059,-794.5"/>
<text text-anchor="middle" x="284.6897" y="-885.9" font-family="Times,serif" font-size="14.00" fill="#000000">&lt;&lt;Struct&gt;&gt;</text>
<text text-anchor="middle" x="284.6897" y="-869.1" font-family="Times,serif" font-size="14.00" fill="#000000">FeeData</text>
<polyline fill="none" stroke="#000000" points="230.6059,-860.9 338.7735,-860.9 "/>
<text text-anchor="start" x="238.6059" y="-844.3" font-family="Times,serif" font-size="14.00" fill="#000000">token: address</text>
<text text-anchor="start" x="238.6059" y="-827.5" font-family="Times,serif" font-size="14.00" fill="#000000">amount: uint256</text>
<polyline fill="none" stroke="#000000" points="230.6059,-819.3 338.7735,-819.3 "/>
<text text-anchor="middle" x="284.6897" y="-802.7" font-family="Times,serif" font-size="14.00" fill="#000000"> </text>
</g>
<!-- 0&#45;&gt;11 -->
<g id="edge7" class="edge">
<title>0&#45;&gt;11</title>
<path fill="none" stroke="#000000" stroke-dasharray="5,2" d="M598.718,-326.9521C589.0751,-338.5006 580.3003,-350.651 572.6897,-363.4 501.4043,-482.8148 629.6072,-572.3527 534.6897,-674 476.925,-735.8603 414.1854,-657.638 347.6897,-710 324.2153,-728.485 309.1857,-757.6729 299.7213,-784.4974"/>
<polygon fill="#000000" stroke="#000000" points="296.3129,-783.6554 296.4808,-794.249 302.9557,-785.8629 296.3129,-783.6554"/>
</g>
<!-- 1&#45;&gt;11 -->
<g id="edge11" class="edge">
<title>1&#45;&gt;11</title>
<path fill="none" stroke="#000000" stroke-dasharray="5,2" d="M284.6897,-673.9428C284.6897,-712.8193 284.6897,-752.414 284.6897,-784.044"/>
<polygon fill="#000000" stroke="#000000" points="281.1898,-784.4527 284.6897,-794.4528 288.1898,-784.4528 281.1898,-784.4527"/>
</g>
<!-- 1struct0 -->
<g id="node3" class="node">
<title>1struct0</title>
<polygon fill="#f2f2f2" stroke="#000000" points="167.261,-130.5 167.261,-196.9 424.1184,-196.9 424.1184,-130.5 167.261,-130.5"/>
<text text-anchor="middle" x="295.6897" y="-180.3" font-family="Times,serif" font-size="14.00" fill="#000000">&lt;&lt;struct&gt;&gt;</text>
<text text-anchor="middle" x="295.6897" y="-163.5" font-family="Times,serif" font-size="14.00" fill="#000000">UserGasData</text>
<polyline fill="none" stroke="#000000" points="167.261,-155.3 424.1184,-155.3 "/>
<text text-anchor="start" x="175.261" y="-138.7" font-family="Times,serif" font-size="14.00" fill="#000000">gasReserves: mapping(address=&gt;GasData)</text>
</g>
<!-- 1struct0&#45;&gt;1 -->
<g id="edge1" class="edge">
<title>1struct0&#45;&gt;1</title>
<path fill="none" stroke="#000000" d="M294.6548,-197.0975C293.5391,-233.107 291.678,-293.168 289.8643,-351.7009"/>
<polygon fill="#000000" stroke="#000000" points="289.8621,-351.7742 293.6744,-357.8952 289.4904,-363.7684 285.6782,-357.6474 289.8621,-351.7742"/>
</g>
<!-- 1struct1 -->
<g id="node4" class="node">
<title>1struct1</title>
<polygon fill="#f2f2f2" stroke="#000000" points="0,-113.7 0,-213.7 149.3794,-213.7 149.3794,-113.7 0,-113.7"/>
<text text-anchor="middle" x="74.6897" y="-197.1" font-family="Times,serif" font-size="14.00" fill="#000000">&lt;&lt;struct&gt;&gt;</text>
<text text-anchor="middle" x="74.6897" y="-180.3" font-family="Times,serif" font-size="14.00" fill="#000000">GasData</text>
<polyline fill="none" stroke="#000000" points="0,-172.1 149.3794,-172.1 "/>
<text text-anchor="start" x="8" y="-155.5" font-family="Times,serif" font-size="14.00" fill="#000000">totalAmount: uint256</text>
<text text-anchor="start" x="8" y="-138.7" font-family="Times,serif" font-size="14.00" fill="#000000">lockedAmount: uint256</text>
<text text-anchor="start" x="8" y="-121.9" font-family="Times,serif" font-size="14.00" fill="#000000">usedAmount: uint256</text>
</g>
<!-- 1struct1&#45;&gt;1 -->
<g id="edge2" class="edge">
<title>1struct1&#45;&gt;1</title>
<path fill="none" stroke="#000000" d="M98.6802,-213.8804C114.7829,-246.6682 136.9539,-290.155 158.6897,-327.4 163.6962,-335.9788 168.9252,-344.7046 174.2855,-353.467"/>
<polygon fill="#000000" stroke="#000000" points="174.3358,-353.5486 180.8894,-356.557 180.633,-363.7636 174.0794,-360.7552 174.3358,-353.5486"/>
</g>
<!-- 3 -->
<g id="node6" class="node">
<title>3</title>
<polygon fill="#f2f2f2" stroke="#000000" points="1476.8926,-710.5 1476.8926,-986.5 2146.4868,-986.5 2146.4868,-710.5 1476.8926,-710.5"/>
<text text-anchor="middle" x="1811.6897" y="-969.9" font-family="Times,serif" font-size="14.00" fill="#000000">AyaraReceiver</text>
<polyline fill="none" stroke="#000000" points="1476.8926,-961.7 2146.4868,-961.7 "/>
<text text-anchor="start" x="1484.8926" y="-945.1" font-family="Times,serif" font-size="14.00" fill="#000000">Public:</text>
<text text-anchor="start" x="1484.8926" y="-928.3" font-family="Times,serif" font-size="14.00" fill="#000000"> &#160;&#160;latestMessageId: bytes32</text>
<text text-anchor="start" x="1484.8926" y="-911.5" font-family="Times,serif" font-size="14.00" fill="#000000"> &#160;&#160;latestSourceChainSelector: uint64</text>
<text text-anchor="start" x="1484.8926" y="-894.7" font-family="Times,serif" font-size="14.00" fill="#000000"> &#160;&#160;latestSender: address</text>
<text text-anchor="start" x="1484.8926" y="-877.9" font-family="Times,serif" font-size="14.00" fill="#000000"> &#160;&#160;latestMessage: string</text>
<polyline fill="none" stroke="#000000" points="1476.8926,-869.7 2146.4868,-869.7 "/>
<text text-anchor="start" x="1484.8926" y="-853.1" font-family="Times,serif" font-size="14.00" fill="#000000">Internal:</text>
<text text-anchor="start" x="1484.8926" y="-836.3" font-family="Times,serif" font-size="14.00" fill="#000000"> &#160;&#160;&#160;_ccipReceive(message: Client.Any2EVMMessage)</text>
<text text-anchor="start" x="1484.8926" y="-819.5" font-family="Times,serif" font-size="14.00" fill="#000000"> &#160;&#160;&#160;_handleReceive(message: Client.Any2EVMMessage): (decodedMessage: Message)</text>
<text text-anchor="start" x="1484.8926" y="-802.7" font-family="Times,serif" font-size="14.00" fill="#000000">External:</text>
<text text-anchor="start" x="1484.8926" y="-785.9" font-family="Times,serif" font-size="14.00" fill="#000000"> &#160;&#160;&#160;ccipReceive(uint64, message: Client.Any2EVMMessage)</text>
<text text-anchor="start" x="1484.8926" y="-769.1" font-family="Times,serif" font-size="14.00" fill="#000000">Public:</text>
<text text-anchor="start" x="1484.8926" y="-752.3" font-family="Times,serif" font-size="14.00" fill="#000000"> &#160;&#160;&#160;&lt;&lt;event&gt;&gt; MessageReceived(latestMessageId: bytes32, latestSourceChainSelector: uint64, latestSender: address)</text>
<text text-anchor="start" x="1484.8926" y="-735.5" font-family="Times,serif" font-size="14.00" fill="#000000"> &#160;&#160;&#160;constructor(router_: address)</text>
<text text-anchor="start" x="1484.8926" y="-718.7" font-family="Times,serif" font-size="14.00" fill="#000000"> &#160;&#160;&#160;getLatestMessageDetails(): (bytes32, uint64, address, string)</text>
</g>
<!-- 2&#45;&gt;3 -->
<g id="edge13" class="edge">
<title>2&#45;&gt;3</title>
<path fill="none" stroke="#000000" d="M1811.6897,-589.8557C1811.6897,-616.5465 1811.6897,-648.1439 1811.6897,-679.9236"/>
<polygon fill="none" stroke="#000000" points="1801.1898,-680.2942 1811.6897,-710.2943 1822.1898,-680.2943 1801.1898,-680.2942"/>
</g>
<!-- 4 -->
<g id="node7" class="node">
<title>4</title>
<polygon fill="#f2f2f2" stroke="#000000" points="2164.1216,-760.9 2164.1216,-936.1 2543.2578,-936.1 2543.2578,-760.9 2164.1216,-760.9"/>
<text text-anchor="middle" x="2353.6897" y="-919.5" font-family="Times,serif" font-size="14.00" fill="#000000">AyaraSender</text>
<polyline fill="none" stroke="#000000" points="2164.1216,-911.3 2543.2578,-911.3 "/>
<text text-anchor="start" x="2172.1216" y="-894.7" font-family="Times,serif" font-size="14.00" fill="#000000">Public:</text>
<text text-anchor="start" x="2172.1216" y="-877.9" font-family="Times,serif" font-size="14.00" fill="#000000"> &#160;&#160;router: address</text>
<text text-anchor="start" x="2172.1216" y="-861.1" font-family="Times,serif" font-size="14.00" fill="#000000"> &#160;&#160;link: address</text>
<polyline fill="none" stroke="#000000" points="2164.1216,-852.9 2543.2578,-852.9 "/>
<text text-anchor="start" x="2172.1216" y="-836.3" font-family="Times,serif" font-size="14.00" fill="#000000">Internal:</text>
<text text-anchor="start" x="2172.1216" y="-819.5" font-family="Times,serif" font-size="14.00" fill="#000000"> &#160;&#160;&#160;_sendMessage(destinationChainSelector: uint64, data_: bytes)</text>
<text text-anchor="start" x="2172.1216" y="-802.7" font-family="Times,serif" font-size="14.00" fill="#000000">Public:</text>
<text text-anchor="start" x="2172.1216" y="-785.9" font-family="Times,serif" font-size="14.00" fill="#000000"> &#160;&#160;&#160;&lt;&lt;event&gt;&gt; MessageSent(messageId: bytes32)</text>
<text text-anchor="start" x="2172.1216" y="-769.1" font-family="Times,serif" font-size="14.00" fill="#000000"> &#160;&#160;&#160;constructor(router_: address, link_: address)</text>
</g>
<!-- 2&#45;&gt;4 -->
<g id="edge12" class="edge">
<title>2&#45;&gt;4</title>
<path fill="none" stroke="#000000" d="M1946.681,-589.5974C2010.8895,-624.3719 2088.1945,-667.7824 2155.6897,-710 2172.6557,-720.6121 2190.1739,-732.0783 2207.4493,-743.7119"/>
<polygon fill="none" stroke="#000000" points="2201.7937,-752.5643 2232.4937,-760.7963 2213.6279,-735.2163 2201.7937,-752.5643"/>
</g>
<!-- 3&#45;&gt;9 -->
<g id="edge14" class="edge">
<title>3&#45;&gt;9</title>
<path fill="none" stroke="#000000" stroke-dasharray="5,2" d="M1759.4758,-986.7581C1756.0202,-995.9083 1752.5939,-1004.9808 1749.2694,-1013.7839"/>
<polygon fill="#000000" stroke="#000000" points="1745.964,-1012.6297 1745.7052,-1023.2213 1752.5126,-1015.1028 1745.964,-1012.6297"/>
</g>
<!-- 4enum0 -->
<g id="node8" class="node">
<title>4enum0</title>
<polygon fill="#f2f2f2" stroke="#000000" points="2312.4516,-477.1 2312.4516,-560.3 2394.9278,-560.3 2394.9278,-477.1 2312.4516,-477.1"/>
<text text-anchor="middle" x="2353.6897" y="-543.7" font-family="Times,serif" font-size="14.00" fill="#000000">&lt;&lt;enum&gt;&gt;</text>
<text text-anchor="middle" x="2353.6897" y="-526.9" font-family="Times,serif" font-size="14.00" fill="#000000">PayFeesIn</text>
<polyline fill="none" stroke="#000000" points="2312.4516,-518.7 2394.9278,-518.7 "/>
<text text-anchor="start" x="2320.4516" y="-502.1" font-family="Times,serif" font-size="14.00" fill="#000000">NATIVE: 0</text>
<text text-anchor="start" x="2320.4516" y="-485.3" font-family="Times,serif" font-size="14.00" fill="#000000">LINK: 1</text>
</g>
<!-- 4enum0&#45;&gt;4 -->
<g id="edge3" class="edge">
<title>4enum0&#45;&gt;4</title>
<path fill="none" stroke="#000000" d="M2353.6897,-560.4694C2353.6897,-607.4308 2353.6897,-685.3467 2353.6897,-748.3059"/>
<polygon fill="#000000" stroke="#000000" points="2353.6898,-748.6848 2357.6897,-754.6848 2353.6897,-760.6848 2349.6897,-754.6847 2353.6898,-748.6848"/>
</g>
<!-- 8 -->
<g id="node12" class="node">
<title>8</title>
<polygon fill="#f2f2f2" stroke="#000000" points="741.3266,-1023.5 741.3266,-1181.9 1550.0528,-1181.9 1550.0528,-1023.5 741.3266,-1023.5"/>
<text text-anchor="middle" x="1145.6897" y="-1165.3" font-family="Times,serif" font-size="14.00" fill="#000000">&lt;&lt;Library&gt;&gt;</text>
<text text-anchor="middle" x="1145.6897" y="-1148.5" font-family="Times,serif" font-size="14.00" fill="#000000">SignatureValidator</text>
<polyline fill="none" stroke="#000000" points="741.3266,-1140.3 1550.0528,-1140.3 "/>
<text text-anchor="middle" x="1145.6897" y="-1123.7" font-family="Times,serif" font-size="14.00" fill="#000000"> </text>
<polyline fill="none" stroke="#000000" points="741.3266,-1115.5 1550.0528,-1115.5 "/>
<text text-anchor="start" x="749.3266" y="-1098.9" font-family="Times,serif" font-size="14.00" fill="#000000">Internal:</text>
<text text-anchor="start" x="749.3266" y="-1082.1" font-family="Times,serif" font-size="14.00" fill="#000000"> &#160;&#160;&#160;validateSignature(data: bytes, signature: bytes, chainId: uint256, ownerAddress: address, controllerAddress: address, nonce: uint256): bool</text>
<text text-anchor="start" x="749.3266" y="-1065.3" font-family="Times,serif" font-size="14.00" fill="#000000">Public:</text>
<text text-anchor="start" x="749.3266" y="-1048.5" font-family="Times,serif" font-size="14.00" fill="#000000"> &#160;&#160;&#160;DOMAIN_SEPARATOR(chainId: uint256): bytes32</text>
<text text-anchor="start" x="749.3266" y="-1031.7" font-family="Times,serif" font-size="14.00" fill="#000000"> &#160;&#160;&#160;STRUCT_TYPEHASH(): bytes32</text>
</g>
<!-- 5&#45;&gt;8 -->
<g id="edge15" class="edge">
<title>5&#45;&gt;8</title>
<path fill="none" stroke="#000000" stroke-dasharray="5,2" d="M1145.6897,-986.7581C1145.6897,-995.6163 1145.6897,-1004.4016 1145.6897,-1012.9402"/>
<polygon fill="#000000" stroke="#000000" points="1142.1898,-1013.2213 1145.6897,-1023.2213 1149.1898,-1013.2214 1142.1898,-1013.2213"/>
</g>
<!-- 6&#45;&gt;5 -->
<g id="edge17" class="edge">
<title>6&#45;&gt;5</title>
<path fill="none" stroke="#000000" stroke-dasharray="5,2" d="M932.2901,-606.6471C958.3207,-636.1485 988.089,-669.8859 1016.9641,-702.6109"/>
<polygon fill="#000000" stroke="#000000" points="1014.6484,-705.2766 1023.8891,-710.4593 1019.8973,-700.6452 1014.6484,-705.2766"/>
</g>
<!-- 7 -->
<g id="node11" class="node">
<title>7</title>
<polygon fill="#f2f2f2" stroke="#000000" points="356.6072,-752.5 356.6072,-944.5 852.7722,-944.5 852.7722,-752.5 356.6072,-752.5"/>
<text text-anchor="middle" x="604.6897" y="-927.9" font-family="Times,serif" font-size="14.00" fill="#000000">Create2Factory</text>
<polyline fill="none" stroke="#000000" points="356.6072,-919.7 852.7722,-919.7 "/>
<text text-anchor="middle" x="604.6897" y="-903.1" font-family="Times,serif" font-size="14.00" fill="#000000"> </text>
<polyline fill="none" stroke="#000000" points="356.6072,-894.9 852.7722,-894.9 "/>
<text text-anchor="start" x="364.6072" y="-878.3" font-family="Times,serif" font-size="14.00" fill="#000000">Private:</text>
<text text-anchor="start" x="364.6072" y="-861.5" font-family="Times,serif" font-size="14.00" fill="#000000"> &#160;&#160;&#160;_execute(_to: address, _data: bytes): (bool, bytes)</text>
<text text-anchor="start" x="364.6072" y="-844.7" font-family="Times,serif" font-size="14.00" fill="#000000">External:</text>
<text text-anchor="start" x="364.6072" y="-827.9" font-family="Times,serif" font-size="14.00" fill="#000000"> &#160;&#160;&#160;&lt;&lt;payable&gt;&gt; null()</text>
<text text-anchor="start" x="364.6072" y="-811.1" font-family="Times,serif" font-size="14.00" fill="#000000">Public:</text>
<text text-anchor="start" x="364.6072" y="-794.3" font-family="Times,serif" font-size="14.00" fill="#000000"> &#160;&#160;&#160;&lt;&lt;event&gt;&gt; Deployed(salt: bytes32, deployed: address)</text>
<text text-anchor="start" x="364.6072" y="-777.5" font-family="Times,serif" font-size="14.00" fill="#000000"> &#160;&#160;&#160;deploy(amount: uint256, salt: bytes32, bytecode: bytes, callbacks: bytes[]): address</text>
<text text-anchor="start" x="364.6072" y="-760.7" font-family="Times,serif" font-size="14.00" fill="#000000"> &#160;&#160;&#160;computeAddress(salt: bytes32, codeHash: bytes32): address</text>
</g>
<!-- 6&#45;&gt;7 -->
<g id="edge16" class="edge">
<title>6&#45;&gt;7</title>
<path fill="none" stroke="#000000" d="M788.0227,-606.6471C759.7468,-643.9487 726.3374,-688.0224 695.8363,-728.2593"/>
<polygon fill="none" stroke="#000000" points="687.2949,-722.1458 677.5397,-752.3962 704.0301,-734.8317 687.2949,-722.1458"/>
</g>
<!-- 12 -->
<g id="node16" class="node">
<title>12</title>
<polygon fill="#f2f2f2" stroke="#000000" points="1274.2724,-50.9 1274.2724,-276.5 1889.107,-276.5 1889.107,-50.9 1274.2724,-50.9"/>
<text text-anchor="middle" x="1581.6897" y="-259.9" font-family="Times,serif" font-size="14.00" fill="#000000">CCIPRouterMock</text>
<polyline fill="none" stroke="#000000" points="1274.2724,-251.7 1889.107,-251.7 "/>
<text text-anchor="start" x="1282.2724" y="-235.1" font-family="Times,serif" font-size="14.00" fill="#000000">Public:</text>
<text text-anchor="start" x="1282.2724" y="-218.3" font-family="Times,serif" font-size="14.00" fill="#000000"> &#160;&#160;chainSelectorToContract: mapping(uint64=&gt;address)</text>
<text text-anchor="start" x="1282.2724" y="-201.5" font-family="Times,serif" font-size="14.00" fill="#000000"> &#160;&#160;contractToChainSelector: mapping(address=&gt;uint64)</text>
<polyline fill="none" stroke="#000000" points="1274.2724,-193.3 1889.107,-193.3 "/>
<text text-anchor="start" x="1282.2724" y="-176.7" font-family="Times,serif" font-size="14.00" fill="#000000">External:</text>
<text text-anchor="start" x="1282.2724" y="-159.9" font-family="Times,serif" font-size="14.00" fill="#000000"> &#160;&#160;&#160;&lt;&lt;payable&gt;&gt; ccipSend(destinationChainSelector: uint64, message: Client.EVM2AnyMessage): bytes32</text>
<text text-anchor="start" x="1282.2724" y="-143.1" font-family="Times,serif" font-size="14.00" fill="#000000"> &#160;&#160;&#160;_mockSetChainSelectorsToContracts(chainSelectors: uint64[], contractAddresses: address[])</text>
<text text-anchor="start" x="1282.2724" y="-126.3" font-family="Times,serif" font-size="14.00" fill="#000000"> &#160;&#160;&#160;isChainSupported(chainSelector: uint64): bool</text>
<text text-anchor="start" x="1282.2724" y="-109.5" font-family="Times,serif" font-size="14.00" fill="#000000"> &#160;&#160;&#160;getSupportedTokens(chainSelector: uint64): address[]</text>
<text text-anchor="start" x="1282.2724" y="-92.7" font-family="Times,serif" font-size="14.00" fill="#000000"> &#160;&#160;&#160;getFee(destinationChainSelector: uint64, message: Client.EVM2AnyMessage): uint256</text>
<text text-anchor="start" x="1282.2724" y="-75.9" font-family="Times,serif" font-size="14.00" fill="#000000">Public:</text>
<text text-anchor="start" x="1282.2724" y="-59.1" font-family="Times,serif" font-size="14.00" fill="#000000"> &#160;&#160;&#160;&lt;&lt;event&gt;&gt; MessageSent(messageId: bytes32)</text>
</g>
<!-- 13 -->
<g id="node17" class="node">
<title>13</title>
<polygon fill="#f2f2f2" stroke="#000000" points="1907.1574,-101.3 1907.1574,-226.1 2164.222,-226.1 2164.222,-101.3 1907.1574,-101.3"/>
<text text-anchor="middle" x="2035.6897" y="-209.5" font-family="Times,serif" font-size="14.00" fill="#000000">ERC20Mock</text>
<polyline fill="none" stroke="#000000" points="1907.1574,-201.3 2164.222,-201.3 "/>
<text text-anchor="middle" x="2035.6897" y="-184.7" font-family="Times,serif" font-size="14.00" fill="#000000"> </text>
<polyline fill="none" stroke="#000000" points="1907.1574,-176.5 2164.222,-176.5 "/>
<text text-anchor="start" x="1915.1574" y="-159.9" font-family="Times,serif" font-size="14.00" fill="#000000">External:</text>
<text text-anchor="start" x="1915.1574" y="-143.1" font-family="Times,serif" font-size="14.00" fill="#000000"> &#160;&#160;&#160;mint(account: address, amount: uint256)</text>
<text text-anchor="start" x="1915.1574" y="-126.3" font-family="Times,serif" font-size="14.00" fill="#000000">Public:</text>
<text text-anchor="start" x="1915.1574" y="-109.5" font-family="Times,serif" font-size="14.00" fill="#000000"> &#160;&#160;&#160;constructor()</text>
</g>
</g>
</svg>
