<?xml version="1.0" encoding="UTF-8" standalone="no"?>
<!DOCTYPE svg PUBLIC "-//W3C//DTD SVG 1.1//EN"
 "http://www.w3.org/Graphics/SVG/1.1/DTD/svg11.dtd">
<!-- Generated by graphviz version 2.40.1 (20161225.0304)
 -->
<!-- Title: UmlClassDiagram Pages: 1 -->
<svg width="3343pt" height="1470pt"
 viewBox="0.00 0.00 3343.39 1469.80" xmlns="http://www.w3.org/2000/svg" xmlns:xlink="http://www.w3.org/1999/xlink">
<g id="graph0" class="graph" transform="scale(1 1) rotate(0) translate(4 1465.8)">
<title>UmlClassDiagram</title>
<polygon fill="#ffffff" stroke="transparent" points="-4,4 -4,-1465.8 3339.3875,-1465.8 3339.3875,4 -4,4"/>
<!-- 0 -->
<g id="node1" class="node">
<title>0</title>
<polygon fill="#f2f2f2" stroke="#000000" points="1250.6229,-.5 1250.6229,-276.5 1985.0875,-276.5 1985.0875,-.5 1250.6229,-.5"/>
<text text-anchor="middle" x="1617.8552" y="-259.9" font-family="Times,serif" font-size="14.00" fill="#000000">AyaraController</text>
<polyline fill="none" stroke="#000000" points="1250.6229,-251.7 1985.0875,-251.7 "/>
<text text-anchor="start" x="1258.6229" y="-235.1" font-family="Times,serif" font-size="14.00" fill="#000000">Public:</text>
<text text-anchor="start" x="1258.6229" y="-218.3" font-family="Times,serif" font-size="14.00" fill="#000000"> &#160;&#160;VERSION: uint256</text>
<text text-anchor="start" x="1258.6229" y="-201.5" font-family="Times,serif" font-size="14.00" fill="#000000"> &#160;&#160;salt: bytes32</text>
<text text-anchor="start" x="1258.6229" y="-184.7" font-family="Times,serif" font-size="14.00" fill="#000000"> &#160;&#160;chainId: uint256</text>
<polyline fill="none" stroke="#000000" points="1250.6229,-176.5 1985.0875,-176.5 "/>
<text text-anchor="start" x="1258.6229" y="-159.9" font-family="Times,serif" font-size="14.00" fill="#000000">Internal:</text>
<text text-anchor="start" x="1258.6229" y="-143.1" font-family="Times,serif" font-size="14.00" fill="#000000"> &#160;&#160;&#160;_chargeFeeIfRequired(owner_: address, feeData_: FeeData)</text>
<text text-anchor="start" x="1258.6229" y="-126.3" font-family="Times,serif" font-size="14.00" fill="#000000"> &#160;&#160;&#160;_ccipReceive(ccipMessage: Client.Any2EVMMessage)</text>
<text text-anchor="start" x="1258.6229" y="-109.5" font-family="Times,serif" font-size="14.00" fill="#000000">External:</text>
<text text-anchor="start" x="1258.6229" y="-92.7" font-family="Times,serif" font-size="14.00" fill="#000000"> &#160;&#160;&#160;&lt;&lt;payable&gt;&gt; executeUserOperation(owner_: address, wallet_: address, feeData_: FeeData, transaction_: Transaction)</text>
<text text-anchor="start" x="1258.6229" y="-75.9" font-family="Times,serif" font-size="14.00" fill="#000000"> &#160;&#160;&#160;calculateWalletAddress(owner_: address): address</text>
<text text-anchor="start" x="1258.6229" y="-59.1" font-family="Times,serif" font-size="14.00" fill="#000000"> &#160;&#160;&#160;createWallet(owner_: address, callbacks_: bytes[]): address</text>
<text text-anchor="start" x="1258.6229" y="-42.3" font-family="Times,serif" font-size="14.00" fill="#000000">Public:</text>
<text text-anchor="start" x="1258.6229" y="-25.5" font-family="Times,serif" font-size="14.00" fill="#000000"> &#160;&#160;&#160;&lt;&lt;payable&gt;&gt; addFundsToWallet(owner_: address, token_: address, amount_: uint256)</text>
<text text-anchor="start" x="1258.6229" y="-8.7" font-family="Times,serif" font-size="14.00" fill="#000000"> &#160;&#160;&#160;constructor(initialOwner_: address, salt_: bytes32, chainId_: uint256, gasTokens_: address[], link_: address, router_: address)</text>
</g>
<!-- 1 -->
<g id="node2" class="node">
<title>1</title>
<polygon fill="#f2f2f2" stroke="#000000" points="1777.4645,-313.5 1777.4645,-639.9 2378.2459,-639.9 2378.2459,-313.5 1777.4645,-313.5"/>
<text text-anchor="middle" x="2077.8552" y="-623.3" font-family="Times,serif" font-size="14.00" fill="#000000">AyaraGasBank</text>
<polyline fill="none" stroke="#000000" points="1777.4645,-615.1 2378.2459,-615.1 "/>
<text text-anchor="start" x="1785.4645" y="-598.5" font-family="Times,serif" font-size="14.00" fill="#000000">Private:</text>
<text text-anchor="start" x="1785.4645" y="-581.7" font-family="Times,serif" font-size="14.00" fill="#000000"> &#160;&#160;userGasData: mapping(address=&gt;UserGasData)</text>
<text text-anchor="start" x="1785.4645" y="-564.9" font-family="Times,serif" font-size="14.00" fill="#000000">Public:</text>
<text text-anchor="start" x="1785.4645" y="-548.1" font-family="Times,serif" font-size="14.00" fill="#000000"> &#160;&#160;isGasToken: mapping(address=&gt;bool)</text>
<polyline fill="none" stroke="#000000" points="1777.4645,-539.9 2378.2459,-539.9 "/>
<text text-anchor="start" x="1785.4645" y="-523.3" font-family="Times,serif" font-size="14.00" fill="#000000">Internal:</text>
<text text-anchor="start" x="1785.4645" y="-506.5" font-family="Times,serif" font-size="14.00" fill="#000000"> &#160;&#160;&#160;_modifyGasTokens(gasTokens_: address[], enabled_: bool)</text>
<text text-anchor="start" x="1785.4645" y="-489.7" font-family="Times,serif" font-size="14.00" fill="#000000"> &#160;&#160;&#160;_transferAndFundWallet(owner_: address, token_: address, amount_: uint256)</text>
<text text-anchor="start" x="1785.4645" y="-472.9" font-family="Times,serif" font-size="14.00" fill="#000000"> &#160;&#160;&#160;_chargeFee(owner_: address, feeData_: FeeData, relayerFee: uint256)</text>
<text text-anchor="start" x="1785.4645" y="-456.1" font-family="Times,serif" font-size="14.00" fill="#000000"> &#160;&#160;&#160;_lockGas(owner_: address, token_: address, amount_: uint256)</text>
<text text-anchor="start" x="1785.4645" y="-439.3" font-family="Times,serif" font-size="14.00" fill="#000000">External:</text>
<text text-anchor="start" x="1785.4645" y="-422.5" font-family="Times,serif" font-size="14.00" fill="#000000"> &#160;&#160;&#160;getUserGasData(owner_: address, token_: address): (gasData: GasData)</text>
<text text-anchor="start" x="1785.4645" y="-405.7" font-family="Times,serif" font-size="14.00" fill="#000000"> &#160;&#160;&#160;modifyGasTokens(gasTokens_: address[], enabled_: bool)</text>
<text text-anchor="start" x="1785.4645" y="-388.9" font-family="Times,serif" font-size="14.00" fill="#000000">Public:</text>
<text text-anchor="start" x="1785.4645" y="-372.1" font-family="Times,serif" font-size="14.00" fill="#000000"> &#160;&#160;&#160;&lt;&lt;event&gt;&gt; WalletGasFunded(owner: address, token: address, amount: uint256)</text>
<text text-anchor="start" x="1785.4645" y="-355.3" font-family="Times,serif" font-size="14.00" fill="#000000"> &#160;&#160;&#160;&lt;&lt;event&gt;&gt; WalletGasCharged(owner: address, token: address, maxFee: uint256, relayerFee: uint256)</text>
<text text-anchor="start" x="1785.4645" y="-338.5" font-family="Times,serif" font-size="14.00" fill="#000000"> &#160;&#160;&#160;&lt;&lt;event&gt;&gt; GasTokensModified(tokens: address[], enabled: bool)</text>
<text text-anchor="start" x="1785.4645" y="-321.7" font-family="Times,serif" font-size="14.00" fill="#000000"> &#160;&#160;&#160;constructor(gasTokens_: address[], initialOwner_: address)</text>
</g>
<!-- 0&#45;&gt;1 -->
<g id="edge4" class="edge">
<title>0&#45;&gt;1</title>
<path fill="none" stroke="#000000" d="M1805.6183,-276.5467C1814.1366,-282.8095 1822.735,-289.1312 1831.3645,-295.4758"/>
<polygon fill="none" stroke="#000000" points="1825.3358,-304.0758 1855.7259,-313.3867 1837.7752,-287.1565 1825.3358,-304.0758"/>
</g>
<!-- 6 -->
<g id="node10" class="node">
<title>6</title>
<polygon fill="#f2f2f2" stroke="#000000" points="648.9736,-338.7 648.9736,-614.7 1452.7368,-614.7 1452.7368,-338.7 648.9736,-338.7"/>
<text text-anchor="middle" x="1050.8552" y="-598.1" font-family="Times,serif" font-size="14.00" fill="#000000">AyaraWalletManager</text>
<polyline fill="none" stroke="#000000" points="648.9736,-589.9 1452.7368,-589.9 "/>
<text text-anchor="start" x="656.9736" y="-573.3" font-family="Times,serif" font-size="14.00" fill="#000000">Public:</text>
<text text-anchor="start" x="656.9736" y="-556.5" font-family="Times,serif" font-size="14.00" fill="#000000"> &#160;&#160;wallets: mapping(address=&gt;address)</text>
<polyline fill="none" stroke="#000000" points="648.9736,-548.3 1452.7368,-548.3 "/>
<text text-anchor="start" x="656.9736" y="-531.7" font-family="Times,serif" font-size="14.00" fill="#000000">Internal:</text>
<text text-anchor="start" x="656.9736" y="-514.9" font-family="Times,serif" font-size="14.00" fill="#000000"> &#160;&#160;&#160;_createWalletIfNotExists(owner_: address, chainId_: uint256, salt_: bytes32): address</text>
<text text-anchor="start" x="656.9736" y="-498.1" font-family="Times,serif" font-size="14.00" fill="#000000"> &#160;&#160;&#160;_createWallet(owner_: address, chainId_: uint256, salt_: bytes32): address</text>
<text text-anchor="start" x="656.9736" y="-481.3" font-family="Times,serif" font-size="14.00" fill="#000000"> &#160;&#160;&#160;_createWallet(owner_: address, callbacks_: bytes[], chainId: uint256, salt: bytes32): address</text>
<text text-anchor="start" x="656.9736" y="-464.5" font-family="Times,serif" font-size="14.00" fill="#000000"> &#160;&#160;&#160;_executeUserOperationThisChain(owner_: address, wallet_: address, transaction_: Transaction): (success: bool)</text>
<text text-anchor="start" x="656.9736" y="-447.7" font-family="Times,serif" font-size="14.00" fill="#000000"> &#160;&#160;&#160;_executeUserOperationOtherChain(owner_: address, wallet_: address, transaction_: Transaction)</text>
<text text-anchor="start" x="656.9736" y="-430.9" font-family="Times,serif" font-size="14.00" fill="#000000"> &#160;&#160;&#160;_calculateWalletAddress(owner_: address, chainId: uint256, salt: bytes32): address</text>
<text text-anchor="start" x="656.9736" y="-414.1" font-family="Times,serif" font-size="14.00" fill="#000000">Public:</text>
<text text-anchor="start" x="656.9736" y="-397.3" font-family="Times,serif" font-size="14.00" fill="#000000"> &#160;&#160;&#160;&lt;&lt;event&gt;&gt; WalletCreated(owner: address, wallet: address)</text>
<text text-anchor="start" x="656.9736" y="-380.5" font-family="Times,serif" font-size="14.00" fill="#000000"> &#160;&#160;&#160;&lt;&lt;event&gt;&gt; OperationExecuted(owner: address, wallet: address, to: address, value: uint256, data: bytes, signature: bytes)</text>
<text text-anchor="start" x="656.9736" y="-363.7" font-family="Times,serif" font-size="14.00" fill="#000000"> &#160;&#160;&#160;&lt;&lt;event&gt;&gt; OperationExecutionSent(owner: address, wallet: address, to: address, destinationChainId: uint64, data: bytes, signature: bytes)</text>
<text text-anchor="start" x="656.9736" y="-346.9" font-family="Times,serif" font-size="14.00" fill="#000000"> &#160;&#160;&#160;constructor(link_: address, router_: address)</text>
</g>
<!-- 0&#45;&gt;6 -->
<g id="edge5" class="edge">
<title>0&#45;&gt;6</title>
<path fill="none" stroke="#000000" d="M1386.4168,-276.5467C1360.6948,-291.8891 1334.3807,-307.5848 1308.3611,-323.1048"/>
<polygon fill="none" stroke="#000000" points="1302.8585,-314.1609 1282.4725,-338.5466 1313.6162,-332.1962 1302.8585,-314.1609"/>
</g>
<!-- 9 -->
<g id="node13" class="node">
<title>9</title>
<polygon fill="#f2f2f2" stroke="#000000" points="504.7272,-1302.9 504.7272,-1461.3 608.9832,-1461.3 608.9832,-1302.9 504.7272,-1302.9"/>
<text text-anchor="middle" x="556.8552" y="-1444.7" font-family="Times,serif" font-size="14.00" fill="#000000">&lt;&lt;Struct&gt;&gt;</text>
<text text-anchor="middle" x="556.8552" y="-1427.9" font-family="Times,serif" font-size="14.00" fill="#000000">Message</text>
<polyline fill="none" stroke="#000000" points="504.7272,-1419.7 608.9832,-1419.7 "/>
<text text-anchor="start" x="512.7272" y="-1403.1" font-family="Times,serif" font-size="14.00" fill="#000000">owner: address</text>
<text text-anchor="start" x="512.7272" y="-1386.3" font-family="Times,serif" font-size="14.00" fill="#000000">wallet: address</text>
<text text-anchor="start" x="512.7272" y="-1369.5" font-family="Times,serif" font-size="14.00" fill="#000000">to: address</text>
<text text-anchor="start" x="512.7272" y="-1352.7" font-family="Times,serif" font-size="14.00" fill="#000000">data: bytes</text>
<text text-anchor="start" x="512.7272" y="-1335.9" font-family="Times,serif" font-size="14.00" fill="#000000">signature: bytes</text>
<polyline fill="none" stroke="#000000" points="504.7272,-1327.7 608.9832,-1327.7 "/>
<text text-anchor="middle" x="556.8552" y="-1311.1" font-family="Times,serif" font-size="14.00" fill="#000000"> </text>
</g>
<!-- 0&#45;&gt;9 -->
<g id="edge8" class="edge">
<title>0&#45;&gt;9</title>
<path fill="none" stroke="#000000" stroke-dasharray="5,2" d="M1607.8004,-276.7614C1607.6361,-390.9745 1627.6284,-548.7212 1725.8552,-640.4 1807.9212,-716.9953 1896.7431,-596.7573 1975.8552,-676.4 2063.4291,-764.5612 1934.238,-857.992 2013.8552,-953.4 2046.8136,-992.8952 2093.6635,-947.7516 2123.8552,-989.4 2196.1121,-1089.0759 2207.6416,-1176.1992 2123.8552,-1266.4 2071.7331,-1322.5124 904.9048,-1369.2229 619.4462,-1379.8375"/>
<polygon fill="#000000" stroke="#000000" points="619.1343,-1376.3466 609.2708,-1380.2145 619.3935,-1383.3418 619.1343,-1376.3466"/>
</g>
<!-- 10 -->
<g id="node14" class="node">
<title>10</title>
<polygon fill="#f2f2f2" stroke="#000000" points="0,-1048.7 0,-1207.1 165.7104,-1207.1 165.7104,-1048.7 0,-1048.7"/>
<text text-anchor="middle" x="82.8552" y="-1190.5" font-family="Times,serif" font-size="14.00" fill="#000000">&lt;&lt;Struct&gt;&gt;</text>
<text text-anchor="middle" x="82.8552" y="-1173.7" font-family="Times,serif" font-size="14.00" fill="#000000">Transaction</text>
<polyline fill="none" stroke="#000000" points="0,-1165.5 165.7104,-1165.5 "/>
<text text-anchor="start" x="8" y="-1148.9" font-family="Times,serif" font-size="14.00" fill="#000000">destinationChainId: uint64</text>
<text text-anchor="start" x="8" y="-1132.1" font-family="Times,serif" font-size="14.00" fill="#000000">to: address</text>
<text text-anchor="start" x="8" y="-1115.3" font-family="Times,serif" font-size="14.00" fill="#000000">value: uint256</text>
<text text-anchor="start" x="8" y="-1098.5" font-family="Times,serif" font-size="14.00" fill="#000000">data: bytes</text>
<text text-anchor="start" x="8" y="-1081.7" font-family="Times,serif" font-size="14.00" fill="#000000">signature: bytes</text>
<polyline fill="none" stroke="#000000" points="0,-1073.5 165.7104,-1073.5 "/>
<text text-anchor="middle" x="82.8552" y="-1056.9" font-family="Times,serif" font-size="14.00" fill="#000000"> </text>
</g>
<!-- 0&#45;&gt;10 -->
<g id="edge7" class="edge">
<title>0&#45;&gt;10</title>
<path fill="none" stroke="#000000" stroke-dasharray="5,2" d="M1250.5125,-185.8743C1020.58,-219.0116 748.0994,-265.6583 639.8552,-313 394.7009,-420.2208 298.7653,-447.706 159.8552,-676.4 92.1451,-787.8742 79.5911,-941.8504 79.3105,-1038.103"/>
<polygon fill="#000000" stroke="#000000" points="75.8109,-1038.3953 79.3267,-1048.3898 82.8109,-1038.3843 75.8109,-1038.3953"/>
</g>
<!-- 11 -->
<g id="node15" class="node">
<title>11</title>
<polygon fill="#f2f2f2" stroke="#000000" points="2022.6108,-760.9 2022.6108,-868.9 2133.0996,-868.9 2133.0996,-760.9 2022.6108,-760.9"/>
<text text-anchor="middle" x="2077.8552" y="-852.3" font-family="Times,serif" font-size="14.00" fill="#000000">&lt;&lt;Struct&gt;&gt;</text>
<text text-anchor="middle" x="2077.8552" y="-835.5" font-family="Times,serif" font-size="14.00" fill="#000000">FeeData</text>
<polyline fill="none" stroke="#000000" points="2022.6108,-827.3 2133.0996,-827.3 "/>
<text text-anchor="start" x="2030.6108" y="-810.7" font-family="Times,serif" font-size="14.00" fill="#000000">token: address</text>
<text text-anchor="start" x="2030.6108" y="-793.9" font-family="Times,serif" font-size="14.00" fill="#000000">maxFee: uint256</text>
<polyline fill="none" stroke="#000000" points="2022.6108,-785.7 2133.0996,-785.7 "/>
<text text-anchor="middle" x="2077.8552" y="-769.1" font-family="Times,serif" font-size="14.00" fill="#000000"> </text>
</g>
<!-- 0&#45;&gt;11 -->
<g id="edge6" class="edge">
<title>0&#45;&gt;11</title>
<path fill="none" stroke="#000000" stroke-dasharray="5,2" d="M1710.5076,-276.8505C1716.3179,-288.784 1721.5489,-300.9184 1725.8552,-313 1750.4925,-382.1208 1717.4444,-588.0397 1768.8552,-640.4 1844.4227,-717.3632 1921.6215,-612.9646 2008.8552,-676.4 2033.7322,-694.4903 2050.1592,-724.1047 2060.7184,-751.3157"/>
<polygon fill="#000000" stroke="#000000" points="2057.4762,-752.6401 2064.2128,-760.8174 2064.046,-750.2239 2057.4762,-752.6401"/>
</g>
<!-- 1&#45;&gt;11 -->
<g id="edge9" class="edge">
<title>1&#45;&gt;11</title>
<path fill="none" stroke="#000000" stroke-dasharray="5,2" d="M2077.8552,-640.3513C2077.8552,-679.4338 2077.8552,-718.9048 2077.8552,-750.4021"/>
<polygon fill="#000000" stroke="#000000" points="2074.3553,-750.766 2077.8552,-760.766 2081.3553,-750.766 2074.3553,-750.766"/>
</g>
<!-- 1struct0 -->
<g id="node3" class="node">
<title>1struct0</title>
<polygon fill="#f2f2f2" stroke="#000000" points="2170.4265,-105.3 2170.4265,-171.7 2427.2839,-171.7 2427.2839,-105.3 2170.4265,-105.3"/>
<text text-anchor="middle" x="2298.8552" y="-155.1" font-family="Times,serif" font-size="14.00" fill="#000000">&lt;&lt;struct&gt;&gt;</text>
<text text-anchor="middle" x="2298.8552" y="-138.3" font-family="Times,serif" font-size="14.00" fill="#000000">UserGasData</text>
<polyline fill="none" stroke="#000000" points="2170.4265,-130.1 2427.2839,-130.1 "/>
<text text-anchor="start" x="2178.4265" y="-113.5" font-family="Times,serif" font-size="14.00" fill="#000000">gasReserves: mapping(address=&gt;GasData)</text>
</g>
<!-- 1struct0&#45;&gt;1 -->
<g id="edge1" class="edge">
<title>1struct0&#45;&gt;1</title>
<path fill="none" stroke="#000000" d="M2277.06,-171.8535C2256.4888,-203.334 2223.9798,-253.0832 2191.1423,-303.3349"/>
<polygon fill="#000000" stroke="#000000" points="2191.1382,-303.3413 2191.2045,-310.5521 2184.5738,-313.3867 2184.5075,-306.1759 2191.1382,-303.3413"/>
</g>
<!-- 1struct1 -->
<g id="node4" class="node">
<title>1struct1</title>
<polygon fill="#f2f2f2" stroke="#000000" points="2003.1655,-88.5 2003.1655,-188.5 2152.5449,-188.5 2152.5449,-88.5 2003.1655,-88.5"/>
<text text-anchor="middle" x="2077.8552" y="-171.9" font-family="Times,serif" font-size="14.00" fill="#000000">&lt;&lt;struct&gt;&gt;</text>
<text text-anchor="middle" x="2077.8552" y="-155.1" font-family="Times,serif" font-size="14.00" fill="#000000">GasData</text>
<polyline fill="none" stroke="#000000" points="2003.1655,-146.9 2152.5449,-146.9 "/>
<text text-anchor="start" x="2011.1655" y="-130.3" font-family="Times,serif" font-size="14.00" fill="#000000">totalAmount: uint256</text>
<text text-anchor="start" x="2011.1655" y="-113.5" font-family="Times,serif" font-size="14.00" fill="#000000">lockedAmount: uint256</text>
<text text-anchor="start" x="2011.1655" y="-96.7" font-family="Times,serif" font-size="14.00" fill="#000000">usedAmount: uint256</text>
</g>
<!-- 1struct1&#45;&gt;1 -->
<g id="edge2" class="edge">
<title>1struct1&#45;&gt;1</title>
<path fill="none" stroke="#000000" d="M2077.8552,-188.7668C2077.8552,-219.1637 2077.8552,-259.9193 2077.8552,-301.1851"/>
<polygon fill="#000000" stroke="#000000" points="2077.8553,-301.4109 2081.8552,-307.4109 2077.8552,-313.4109 2073.8552,-307.4108 2077.8553,-301.4109"/>
</g>
<!-- 2 -->
<g id="node5" class="node">
<title>2</title>
<polygon fill="#f2f2f2" stroke="#000000" points="329.4115,-744.1 329.4115,-885.7 784.2989,-885.7 784.2989,-744.1 329.4115,-744.1"/>
<text text-anchor="middle" x="556.8552" y="-869.1" font-family="Times,serif" font-size="14.00" fill="#000000">AyaraMessageHandler</text>
<polyline fill="none" stroke="#000000" points="329.4115,-860.9 784.2989,-860.9 "/>
<text text-anchor="start" x="337.4115" y="-844.3" font-family="Times,serif" font-size="14.00" fill="#000000">Public:</text>
<text text-anchor="start" x="337.4115" y="-827.5" font-family="Times,serif" font-size="14.00" fill="#000000"> &#160;&#160;chainIdToChainSelector: mapping(uint64=&gt;uint64)</text>
<polyline fill="none" stroke="#000000" points="329.4115,-819.3 784.2989,-819.3 "/>
<text text-anchor="start" x="337.4115" y="-802.7" font-family="Times,serif" font-size="14.00" fill="#000000">Internal:</text>
<text text-anchor="start" x="337.4115" y="-785.9" font-family="Times,serif" font-size="14.00" fill="#000000"> &#160;&#160;&#160;_routeMessage(owner_: address, wallet: address, transaction_: Transaction)</text>
<text text-anchor="start" x="337.4115" y="-769.1" font-family="Times,serif" font-size="14.00" fill="#000000">Public:</text>
<text text-anchor="start" x="337.4115" y="-752.3" font-family="Times,serif" font-size="14.00" fill="#000000"> &#160;&#160;&#160;constructor(router_: address, link_: address)</text>
</g>
<!-- 3 -->
<g id="node6" class="node">
<title>3</title>
<polygon fill="#f2f2f2" stroke="#000000" points="222.0581,-989.9 222.0581,-1265.9 891.6523,-1265.9 891.6523,-989.9 222.0581,-989.9"/>
<text text-anchor="middle" x="556.8552" y="-1249.3" font-family="Times,serif" font-size="14.00" fill="#000000">AyaraReceiver</text>
<polyline fill="none" stroke="#000000" points="222.0581,-1241.1 891.6523,-1241.1 "/>
<text text-anchor="start" x="230.0581" y="-1224.5" font-family="Times,serif" font-size="14.00" fill="#000000">Public:</text>
<text text-anchor="start" x="230.0581" y="-1207.7" font-family="Times,serif" font-size="14.00" fill="#000000"> &#160;&#160;latestMessageId: bytes32</text>
<text text-anchor="start" x="230.0581" y="-1190.9" font-family="Times,serif" font-size="14.00" fill="#000000"> &#160;&#160;latestSourceChainSelector: uint64</text>
<text text-anchor="start" x="230.0581" y="-1174.1" font-family="Times,serif" font-size="14.00" fill="#000000"> &#160;&#160;latestSender: address</text>
<text text-anchor="start" x="230.0581" y="-1157.3" font-family="Times,serif" font-size="14.00" fill="#000000"> &#160;&#160;latestMessage: string</text>
<polyline fill="none" stroke="#000000" points="222.0581,-1149.1 891.6523,-1149.1 "/>
<text text-anchor="start" x="230.0581" y="-1132.5" font-family="Times,serif" font-size="14.00" fill="#000000">Internal:</text>
<text text-anchor="start" x="230.0581" y="-1115.7" font-family="Times,serif" font-size="14.00" fill="#000000"> &#160;&#160;&#160;_ccipReceive(message: Client.Any2EVMMessage)</text>
<text text-anchor="start" x="230.0581" y="-1098.9" font-family="Times,serif" font-size="14.00" fill="#000000"> &#160;&#160;&#160;_handleReceive(message: Client.Any2EVMMessage): (decodedMessage: Message)</text>
<text text-anchor="start" x="230.0581" y="-1082.1" font-family="Times,serif" font-size="14.00" fill="#000000">External:</text>
<text text-anchor="start" x="230.0581" y="-1065.3" font-family="Times,serif" font-size="14.00" fill="#000000"> &#160;&#160;&#160;ccipReceive(uint64, message: Client.Any2EVMMessage)</text>
<text text-anchor="start" x="230.0581" y="-1048.5" font-family="Times,serif" font-size="14.00" fill="#000000">Public:</text>
<text text-anchor="start" x="230.0581" y="-1031.7" font-family="Times,serif" font-size="14.00" fill="#000000"> &#160;&#160;&#160;&lt;&lt;event&gt;&gt; MessageReceived(latestMessageId: bytes32, latestSourceChainSelector: uint64, latestSender: address)</text>
<text text-anchor="start" x="230.0581" y="-1014.9" font-family="Times,serif" font-size="14.00" fill="#000000"> &#160;&#160;&#160;constructor(router_: address)</text>
<text text-anchor="start" x="230.0581" y="-998.1" font-family="Times,serif" font-size="14.00" fill="#000000"> &#160;&#160;&#160;getLatestMessageDetails(): (bytes32, uint64, address, string)</text>
</g>
<!-- 2&#45;&gt;3 -->
<g id="edge11" class="edge">
<title>2&#45;&gt;3</title>
<path fill="none" stroke="#000000" d="M556.8552,-885.9245C556.8552,-908.028 556.8552,-933.4129 556.8552,-959.2421"/>
<polygon fill="none" stroke="#000000" points="546.3553,-959.5975 556.8552,-989.5975 567.3553,-959.5975 546.3553,-959.5975"/>
</g>
<!-- 4 -->
<g id="node7" class="node">
<title>4</title>
<polygon fill="#f2f2f2" stroke="#000000" points="909.2871,-1040.3 909.2871,-1215.5 1288.4233,-1215.5 1288.4233,-1040.3 909.2871,-1040.3"/>
<text text-anchor="middle" x="1098.8552" y="-1198.9" font-family="Times,serif" font-size="14.00" fill="#000000">AyaraSender</text>
<polyline fill="none" stroke="#000000" points="909.2871,-1190.7 1288.4233,-1190.7 "/>
<text text-anchor="start" x="917.2871" y="-1174.1" font-family="Times,serif" font-size="14.00" fill="#000000">Public:</text>
<text text-anchor="start" x="917.2871" y="-1157.3" font-family="Times,serif" font-size="14.00" fill="#000000"> &#160;&#160;router: address</text>
<text text-anchor="start" x="917.2871" y="-1140.5" font-family="Times,serif" font-size="14.00" fill="#000000"> &#160;&#160;link: address</text>
<polyline fill="none" stroke="#000000" points="909.2871,-1132.3 1288.4233,-1132.3 "/>
<text text-anchor="start" x="917.2871" y="-1115.7" font-family="Times,serif" font-size="14.00" fill="#000000">Internal:</text>
<text text-anchor="start" x="917.2871" y="-1098.9" font-family="Times,serif" font-size="14.00" fill="#000000"> &#160;&#160;&#160;_sendMessage(destinationChainSelector: uint64, data_: bytes)</text>
<text text-anchor="start" x="917.2871" y="-1082.1" font-family="Times,serif" font-size="14.00" fill="#000000">Public:</text>
<text text-anchor="start" x="917.2871" y="-1065.3" font-family="Times,serif" font-size="14.00" fill="#000000"> &#160;&#160;&#160;&lt;&lt;event&gt;&gt; MessageSent(messageId: bytes32)</text>
<text text-anchor="start" x="917.2871" y="-1048.5" font-family="Times,serif" font-size="14.00" fill="#000000"> &#160;&#160;&#160;constructor(router_: address, link_: address)</text>
</g>
<!-- 2&#45;&gt;4 -->
<g id="edge10" class="edge">
<title>2&#45;&gt;4</title>
<path fill="none" stroke="#000000" d="M667.369,-885.7829C706.4155,-909.1171 751.231,-934.0213 793.8552,-953.4 839.5312,-974.1662 856.0634,-966.7897 900.8552,-989.4 920.7099,-999.4224 940.8331,-1011.2338 960.262,-1023.6634"/>
<polygon fill="none" stroke="#000000" points="954.5127,-1032.4497 985.3224,-1040.261 966.1085,-1014.9415 954.5127,-1032.4497"/>
</g>
<!-- 2&#45;&gt;9 -->
<g id="edge13" class="edge">
<title>2&#45;&gt;9</title>
<path fill="none" stroke="#000000" stroke-dasharray="5,2" d="M408.3316,-885.9106C318.0298,-929.7981 218.8889,-979.5738 212.8552,-989.4 180.6454,-1041.8559 176.9305,-1216.415 212.8552,-1266.4 246.1837,-1312.7727 404.7804,-1351.4824 494.5404,-1370.1317"/>
<polygon fill="#000000" stroke="#000000" points="494.1007,-1373.6144 504.6004,-1372.1979 495.509,-1366.7576 494.1007,-1373.6144"/>
</g>
<!-- 2&#45;&gt;10 -->
<g id="edge12" class="edge">
<title>2&#45;&gt;10</title>
<path fill="none" stroke="#000000" stroke-dasharray="5,2" d="M415.6246,-885.8619C369.7805,-908.2043 318.4621,-932.4905 270.8552,-953.4 231.0327,-970.8905 213.9936,-962.4497 179.8552,-989.4 161.9919,-1003.502 146.052,-1021.7649 132.5088,-1040.3751"/>
<polygon fill="#000000" stroke="#000000" points="129.5744,-1038.4628 126.6553,-1048.6476 135.2885,-1042.5061 129.5744,-1038.4628"/>
</g>
<!-- 3&#45;&gt;9 -->
<g id="edge14" class="edge">
<title>3&#45;&gt;9</title>
<path fill="none" stroke="#000000" stroke-dasharray="5,2" d="M556.8552,-1266.1581C556.8552,-1275.0163 556.8552,-1283.8016 556.8552,-1292.3402"/>
<polygon fill="#000000" stroke="#000000" points="553.3553,-1292.6213 556.8552,-1302.6213 560.3553,-1292.6214 553.3553,-1292.6213"/>
</g>
<!-- 4enum0 -->
<g id="node8" class="node">
<title>4enum0</title>
<polygon fill="#f2f2f2" stroke="#000000" points="1316.6171,-773.3 1316.6171,-856.5 1399.0933,-856.5 1399.0933,-773.3 1316.6171,-773.3"/>
<text text-anchor="middle" x="1357.8552" y="-839.9" font-family="Times,serif" font-size="14.00" fill="#000000">&lt;&lt;enum&gt;&gt;</text>
<text text-anchor="middle" x="1357.8552" y="-823.1" font-family="Times,serif" font-size="14.00" fill="#000000">PayFeesIn</text>
<polyline fill="none" stroke="#000000" points="1316.6171,-814.9 1399.0933,-814.9 "/>
<text text-anchor="start" x="1324.6171" y="-798.3" font-family="Times,serif" font-size="14.00" fill="#000000">NATIVE: 0</text>
<text text-anchor="start" x="1324.6171" y="-781.5" font-family="Times,serif" font-size="14.00" fill="#000000">LINK: 1</text>
</g>
<!-- 4enum0&#45;&gt;4 -->
<g id="edge3" class="edge">
<title>4enum0&#45;&gt;4</title>
<path fill="none" stroke="#000000" d="M1348.9221,-856.6922C1341.3171,-885.6844 1328.3076,-924.1859 1307.8552,-953.4 1287.7615,-982.1018 1261.7828,-1008.8117 1235.0114,-1032.2771"/>
<polygon fill="#000000" stroke="#000000" points="1235.0057,-1032.2819 1233.0665,-1039.2274 1225.9094,-1040.1087 1227.8487,-1033.1632 1235.0057,-1032.2819"/>
</g>
<!-- 5 -->
<g id="node9" class="node">
<title>5</title>
<polygon fill="#f2f2f2" stroke="#000000" points="1417.3036,-676.9 1417.3036,-952.9 1966.4068,-952.9 1966.4068,-676.9 1417.3036,-676.9"/>
<text text-anchor="middle" x="1691.8552" y="-936.3" font-family="Times,serif" font-size="14.00" fill="#000000">AyaraWalletInstance</text>
<polyline fill="none" stroke="#000000" points="1417.3036,-928.1 1966.4068,-928.1 "/>
<text text-anchor="start" x="1425.3036" y="-911.5" font-family="Times,serif" font-size="14.00" fill="#000000">Public:</text>
<text text-anchor="start" x="1425.3036" y="-894.7" font-family="Times,serif" font-size="14.00" fill="#000000"> &#160;&#160;VERSION: uint256</text>
<text text-anchor="start" x="1425.3036" y="-877.9" font-family="Times,serif" font-size="14.00" fill="#000000"> &#160;&#160;ownerAddress: address</text>
<text text-anchor="start" x="1425.3036" y="-861.1" font-family="Times,serif" font-size="14.00" fill="#000000"> &#160;&#160;controllerAddress: address</text>
<text text-anchor="start" x="1425.3036" y="-844.3" font-family="Times,serif" font-size="14.00" fill="#000000"> &#160;&#160;chainId: uint256</text>
<text text-anchor="start" x="1425.3036" y="-827.5" font-family="Times,serif" font-size="14.00" fill="#000000"> &#160;&#160;nonce: uint256</text>
<polyline fill="none" stroke="#000000" points="1417.3036,-819.3 1966.4068,-819.3 "/>
<text text-anchor="start" x="1425.3036" y="-802.7" font-family="Times,serif" font-size="14.00" fill="#000000">Private:</text>
<text text-anchor="start" x="1425.3036" y="-785.9" font-family="Times,serif" font-size="14.00" fill="#000000"> &#160;&#160;&#160;_execute(to: address, value: uint256, data: bytes): (bool, bytes)</text>
<text text-anchor="start" x="1425.3036" y="-769.1" font-family="Times,serif" font-size="14.00" fill="#000000">External:</text>
<text text-anchor="start" x="1425.3036" y="-752.3" font-family="Times,serif" font-size="14.00" fill="#000000"> &#160;&#160;&#160;&lt;&lt;payable&gt;&gt; null()</text>
<text text-anchor="start" x="1425.3036" y="-735.5" font-family="Times,serif" font-size="14.00" fill="#000000"> &#160;&#160;&#160;&lt;&lt;payable&gt;&gt; execute(to: address, value: uint256, data: bytes, signature: bytes): (bool, bytes)</text>
<text text-anchor="start" x="1425.3036" y="-718.7" font-family="Times,serif" font-size="14.00" fill="#000000">Public:</text>
<text text-anchor="start" x="1425.3036" y="-701.9" font-family="Times,serif" font-size="14.00" fill="#000000"> &#160;&#160;&#160;&lt;&lt;modifier&gt;&gt; onlyOwnerOrValidSignature(data: bytes, signature: bytes)</text>
<text text-anchor="start" x="1425.3036" y="-685.1" font-family="Times,serif" font-size="14.00" fill="#000000"> &#160;&#160;&#160;constructor(ownerAddress_: address, controllerAddress_: address, chainId_: uint256)</text>
</g>
<!-- 8 -->
<g id="node12" class="node">
<title>8</title>
<polygon fill="#f2f2f2" stroke="#000000" points="1306.4921,-1048.7 1306.4921,-1207.1 2115.2183,-1207.1 2115.2183,-1048.7 1306.4921,-1048.7"/>
<text text-anchor="middle" x="1710.8552" y="-1190.5" font-family="Times,serif" font-size="14.00" fill="#000000">&lt;&lt;Library&gt;&gt;</text>
<text text-anchor="middle" x="1710.8552" y="-1173.7" font-family="Times,serif" font-size="14.00" fill="#000000">SignatureValidator</text>
<polyline fill="none" stroke="#000000" points="1306.4921,-1165.5 2115.2183,-1165.5 "/>
<text text-anchor="middle" x="1710.8552" y="-1148.9" font-family="Times,serif" font-size="14.00" fill="#000000"> </text>
<polyline fill="none" stroke="#000000" points="1306.4921,-1140.7 2115.2183,-1140.7 "/>
<text text-anchor="start" x="1314.4921" y="-1124.1" font-family="Times,serif" font-size="14.00" fill="#000000">Internal:</text>
<text text-anchor="start" x="1314.4921" y="-1107.3" font-family="Times,serif" font-size="14.00" fill="#000000"> &#160;&#160;&#160;validateSignature(data: bytes, signature: bytes, chainId: uint256, ownerAddress: address, controllerAddress: address, nonce: uint256): bool</text>
<text text-anchor="start" x="1314.4921" y="-1090.5" font-family="Times,serif" font-size="14.00" fill="#000000">Public:</text>
<text text-anchor="start" x="1314.4921" y="-1073.7" font-family="Times,serif" font-size="14.00" fill="#000000"> &#160;&#160;&#160;DOMAIN_SEPARATOR(chainId: uint256): bytes32</text>
<text text-anchor="start" x="1314.4921" y="-1056.9" font-family="Times,serif" font-size="14.00" fill="#000000"> &#160;&#160;&#160;STRUCT_TYPEHASH(): bytes32</text>
</g>
<!-- 5&#45;&gt;8 -->
<g id="edge15" class="edge">
<title>5&#45;&gt;8</title>
<path fill="none" stroke="#000000" stroke-dasharray="5,2" d="M1700.2442,-953.0975C1701.9984,-981.9952 1703.8038,-1011.7369 1705.4167,-1038.3085"/>
<polygon fill="#000000" stroke="#000000" points="1701.9254,-1038.5592 1706.025,-1048.3287 1708.9126,-1038.135 1701.9254,-1038.5592"/>
</g>
<!-- 6&#45;&gt;2 -->
<g id="edge16" class="edge">
<title>6&#45;&gt;2</title>
<path fill="none" stroke="#000000" d="M849.214,-614.7467C793.8806,-652.6287 735.4022,-692.6639 685.4068,-726.8916"/>
<polygon fill="none" stroke="#000000" points="679.2967,-718.3497 660.4737,-743.9611 691.1599,-735.6779 679.2967,-718.3497"/>
</g>
<!-- 6&#45;&gt;5 -->
<g id="edge18" class="edge">
<title>6&#45;&gt;5</title>
<path fill="none" stroke="#000000" stroke-dasharray="5,2" d="M1312.499,-614.7467C1348.3217,-633.6472 1385.1603,-653.0837 1421.1408,-672.0675"/>
<polygon fill="#000000" stroke="#000000" points="1419.7911,-675.3126 1430.2688,-676.8836 1423.0576,-669.1215 1419.7911,-675.3126"/>
</g>
<!-- 7 -->
<g id="node11" class="node">
<title>7</title>
<polygon fill="#f2f2f2" stroke="#000000" points="802.7727,-718.9 802.7727,-910.9 1298.9377,-910.9 1298.9377,-718.9 802.7727,-718.9"/>
<text text-anchor="middle" x="1050.8552" y="-894.3" font-family="Times,serif" font-size="14.00" fill="#000000">Create2Factory</text>
<polyline fill="none" stroke="#000000" points="802.7727,-886.1 1298.9377,-886.1 "/>
<text text-anchor="middle" x="1050.8552" y="-869.5" font-family="Times,serif" font-size="14.00" fill="#000000"> </text>
<polyline fill="none" stroke="#000000" points="802.7727,-861.3 1298.9377,-861.3 "/>
<text text-anchor="start" x="810.7727" y="-844.7" font-family="Times,serif" font-size="14.00" fill="#000000">Private:</text>
<text text-anchor="start" x="810.7727" y="-827.9" font-family="Times,serif" font-size="14.00" fill="#000000"> &#160;&#160;&#160;_execute(_to: address, _data: bytes): (bool, bytes)</text>
<text text-anchor="start" x="810.7727" y="-811.1" font-family="Times,serif" font-size="14.00" fill="#000000">External:</text>
<text text-anchor="start" x="810.7727" y="-794.3" font-family="Times,serif" font-size="14.00" fill="#000000"> &#160;&#160;&#160;&lt;&lt;payable&gt;&gt; null()</text>
<text text-anchor="start" x="810.7727" y="-777.5" font-family="Times,serif" font-size="14.00" fill="#000000">Public:</text>
<text text-anchor="start" x="810.7727" y="-760.7" font-family="Times,serif" font-size="14.00" fill="#000000"> &#160;&#160;&#160;&lt;&lt;event&gt;&gt; Deployed(salt: bytes32, deployed: address)</text>
<text text-anchor="start" x="810.7727" y="-743.9" font-family="Times,serif" font-size="14.00" fill="#000000"> &#160;&#160;&#160;deploy(amount: uint256, salt: bytes32, bytecode: bytes, callbacks: bytes[]): address</text>
<text text-anchor="start" x="810.7727" y="-727.1" font-family="Times,serif" font-size="14.00" fill="#000000"> &#160;&#160;&#160;computeAddress(salt: bytes32, codeHash: bytes32): address</text>
</g>
<!-- 6&#45;&gt;7 -->
<g id="edge17" class="edge">
<title>6&#45;&gt;7</title>
<path fill="none" stroke="#000000" d="M1050.8552,-614.7467C1050.8552,-639.1395 1050.8552,-664.4251 1050.8552,-688.4781"/>
<polygon fill="none" stroke="#000000" points="1040.3553,-688.665 1050.8552,-718.665 1061.3553,-688.6651 1040.3553,-688.665"/>
</g>
<!-- 6&#45;&gt;10 -->
<g id="edge19" class="edge">
<title>6&#45;&gt;10</title>
<path fill="none" stroke="#000000" stroke-dasharray="5,2" d="M648.6158,-557.1425C509.6543,-591.0795 375.1632,-632.8097 320.8552,-676.4 259.798,-725.4075 169.628,-921.8963 119.6316,-1038.9045"/>
<polygon fill="#000000" stroke="#000000" points="116.3577,-1037.6595 115.6594,-1048.2313 122.7979,-1040.4023 116.3577,-1037.6595"/>
</g>
<!-- 12 -->
<g id="node16" class="node">
<title>12</title>
<polygon fill="#f2f2f2" stroke="#000000" points="2445.4379,-25.7 2445.4379,-251.3 3060.2725,-251.3 3060.2725,-25.7 2445.4379,-25.7"/>
<text text-anchor="middle" x="2752.8552" y="-234.7" font-family="Times,serif" font-size="14.00" fill="#000000">CCIPRouterMock</text>
<polyline fill="none" stroke="#000000" points="2445.4379,-226.5 3060.2725,-226.5 "/>
<text text-anchor="start" x="2453.4379" y="-209.9" font-family="Times,serif" font-size="14.00" fill="#000000">Public:</text>
<text text-anchor="start" x="2453.4379" y="-193.1" font-family="Times,serif" font-size="14.00" fill="#000000"> &#160;&#160;chainSelectorToContract: mapping(uint64=&gt;address)</text>
<text text-anchor="start" x="2453.4379" y="-176.3" font-family="Times,serif" font-size="14.00" fill="#000000"> &#160;&#160;contractToChainSelector: mapping(address=&gt;uint64)</text>
<polyline fill="none" stroke="#000000" points="2445.4379,-168.1 3060.2725,-168.1 "/>
<text text-anchor="start" x="2453.4379" y="-151.5" font-family="Times,serif" font-size="14.00" fill="#000000">External:</text>
<text text-anchor="start" x="2453.4379" y="-134.7" font-family="Times,serif" font-size="14.00" fill="#000000"> &#160;&#160;&#160;&lt;&lt;payable&gt;&gt; ccipSend(destinationChainSelector: uint64, message: Client.EVM2AnyMessage): bytes32</text>
<text text-anchor="start" x="2453.4379" y="-117.9" font-family="Times,serif" font-size="14.00" fill="#000000"> &#160;&#160;&#160;_mockSetChainSelectorsToContracts(chainSelectors: uint64[], contractAddresses: address[])</text>
<text text-anchor="start" x="2453.4379" y="-101.1" font-family="Times,serif" font-size="14.00" fill="#000000"> &#160;&#160;&#160;isChainSupported(chainSelector: uint64): bool</text>
<text text-anchor="start" x="2453.4379" y="-84.3" font-family="Times,serif" font-size="14.00" fill="#000000"> &#160;&#160;&#160;getSupportedTokens(chainSelector: uint64): address[]</text>
<text text-anchor="start" x="2453.4379" y="-67.5" font-family="Times,serif" font-size="14.00" fill="#000000"> &#160;&#160;&#160;getFee(destinationChainSelector: uint64, message: Client.EVM2AnyMessage): uint256</text>
<text text-anchor="start" x="2453.4379" y="-50.7" font-family="Times,serif" font-size="14.00" fill="#000000">Public:</text>
<text text-anchor="start" x="2453.4379" y="-33.9" font-family="Times,serif" font-size="14.00" fill="#000000"> &#160;&#160;&#160;&lt;&lt;event&gt;&gt; MessageSent(messageId: bytes32)</text>
</g>
<!-- 13 -->
<g id="node17" class="node">
<title>13</title>
<polygon fill="#f2f2f2" stroke="#000000" points="3078.3229,-76.1 3078.3229,-200.9 3335.3875,-200.9 3335.3875,-76.1 3078.3229,-76.1"/>
<text text-anchor="middle" x="3206.8552" y="-184.3" font-family="Times,serif" font-size="14.00" fill="#000000">ERC20Mock</text>
<polyline fill="none" stroke="#000000" points="3078.3229,-176.1 3335.3875,-176.1 "/>
<text text-anchor="middle" x="3206.8552" y="-159.5" font-family="Times,serif" font-size="14.00" fill="#000000"> </text>
<polyline fill="none" stroke="#000000" points="3078.3229,-151.3 3335.3875,-151.3 "/>
<text text-anchor="start" x="3086.3229" y="-134.7" font-family="Times,serif" font-size="14.00" fill="#000000">External:</text>
<text text-anchor="start" x="3086.3229" y="-117.9" font-family="Times,serif" font-size="14.00" fill="#000000"> &#160;&#160;&#160;mint(account: address, amount: uint256)</text>
<text text-anchor="start" x="3086.3229" y="-101.1" font-family="Times,serif" font-size="14.00" fill="#000000">Public:</text>
<text text-anchor="start" x="3086.3229" y="-84.3" font-family="Times,serif" font-size="14.00" fill="#000000"> &#160;&#160;&#160;constructor()</text>
</g>
</g>
</svg>
