<?xml version="1.0" encoding="UTF-8" standalone="no"?>
<!DOCTYPE svg PUBLIC "-//W3C//DTD SVG 1.1//EN"
 "http://www.w3.org/Graphics/SVG/1.1/DTD/svg11.dtd">
<!-- Generated by graphviz version 2.40.1 (20161225.0304)
 -->
<!-- Title: UmlClassDiagram Pages: 1 -->
<svg width="3342pt" height="1453pt"
 viewBox="0.00 0.00 3342.39 1453.00" xmlns="http://www.w3.org/2000/svg" xmlns:xlink="http://www.w3.org/1999/xlink">
<g id="graph0" class="graph" transform="scale(1 1) rotate(0) translate(4 1449)">
<title>UmlClassDiagram</title>
<polygon fill="#ffffff" stroke="transparent" points="-4,4 -4,-1449 3338.3875,-1449 3338.3875,4 -4,4"/>
<!-- 0 -->
<g id="node1" class="node">
<title>0</title>
<polygon fill="#f2f2f2" stroke="#000000" points="1249.6229,-.5 1249.6229,-276.5 1984.0875,-276.5 1984.0875,-.5 1249.6229,-.5"/>
<text text-anchor="middle" x="1616.8552" y="-259.9" font-family="Times,serif" font-size="14.00" fill="#000000">AyaraController</text>
<polyline fill="none" stroke="#000000" points="1249.6229,-251.7 1984.0875,-251.7 "/>
<text text-anchor="start" x="1257.6229" y="-235.1" font-family="Times,serif" font-size="14.00" fill="#000000">Public:</text>
<text text-anchor="start" x="1257.6229" y="-218.3" font-family="Times,serif" font-size="14.00" fill="#000000"> &#160;&#160;VERSION: uint256</text>
<text text-anchor="start" x="1257.6229" y="-201.5" font-family="Times,serif" font-size="14.00" fill="#000000"> &#160;&#160;salt: bytes32</text>
<text text-anchor="start" x="1257.6229" y="-184.7" font-family="Times,serif" font-size="14.00" fill="#000000"> &#160;&#160;chainId: uint256</text>
<polyline fill="none" stroke="#000000" points="1249.6229,-176.5 1984.0875,-176.5 "/>
<text text-anchor="start" x="1257.6229" y="-159.9" font-family="Times,serif" font-size="14.00" fill="#000000">Internal:</text>
<text text-anchor="start" x="1257.6229" y="-143.1" font-family="Times,serif" font-size="14.00" fill="#000000"> &#160;&#160;&#160;_chargeFeeIfRequired(owner_: address, feeData_: FeeData)</text>
<text text-anchor="start" x="1257.6229" y="-126.3" font-family="Times,serif" font-size="14.00" fill="#000000"> &#160;&#160;&#160;_ccipReceive(ccipMessage: Client.Any2EVMMessage)</text>
<text text-anchor="start" x="1257.6229" y="-109.5" font-family="Times,serif" font-size="14.00" fill="#000000">External:</text>
<text text-anchor="start" x="1257.6229" y="-92.7" font-family="Times,serif" font-size="14.00" fill="#000000"> &#160;&#160;&#160;&lt;&lt;payable&gt;&gt; executeUserOperation(owner_: address, wallet_: address, feeData_: FeeData, transaction_: Transaction)</text>
<text text-anchor="start" x="1257.6229" y="-75.9" font-family="Times,serif" font-size="14.00" fill="#000000"> &#160;&#160;&#160;calculateWalletAddress(owner_: address): address</text>
<text text-anchor="start" x="1257.6229" y="-59.1" font-family="Times,serif" font-size="14.00" fill="#000000"> &#160;&#160;&#160;createWallet(owner_: address, callbacks_: bytes[]): address</text>
<text text-anchor="start" x="1257.6229" y="-42.3" font-family="Times,serif" font-size="14.00" fill="#000000">Public:</text>
<text text-anchor="start" x="1257.6229" y="-25.5" font-family="Times,serif" font-size="14.00" fill="#000000"> &#160;&#160;&#160;&lt;&lt;payable&gt;&gt; addFundsToWallet(owner_: address, token_: address, amount_: uint256)</text>
<text text-anchor="start" x="1257.6229" y="-8.7" font-family="Times,serif" font-size="14.00" fill="#000000"> &#160;&#160;&#160;constructor(initialOwner_: address, salt_: bytes32, chainId_: uint256, gasTokens_: address[], link_: address, router_: address)</text>
</g>
<!-- 1 -->
<g id="node2" class="node">
<title>1</title>
<polygon fill="#f2f2f2" stroke="#000000" points="1835.7447,-313.5 1835.7447,-623.1 2317.9657,-623.1 2317.9657,-313.5 1835.7447,-313.5"/>
<text text-anchor="middle" x="2076.8552" y="-606.5" font-family="Times,serif" font-size="14.00" fill="#000000">AyaraGasBank</text>
<polyline fill="none" stroke="#000000" points="1835.7447,-598.3 2317.9657,-598.3 "/>
<text text-anchor="start" x="1843.7447" y="-581.7" font-family="Times,serif" font-size="14.00" fill="#000000">Private:</text>
<text text-anchor="start" x="1843.7447" y="-564.9" font-family="Times,serif" font-size="14.00" fill="#000000"> &#160;&#160;userGasData: mapping(address=&gt;UserGasData)</text>
<text text-anchor="start" x="1843.7447" y="-548.1" font-family="Times,serif" font-size="14.00" fill="#000000">Public:</text>
<text text-anchor="start" x="1843.7447" y="-531.3" font-family="Times,serif" font-size="14.00" fill="#000000"> &#160;&#160;isGasToken: mapping(address=&gt;bool)</text>
<polyline fill="none" stroke="#000000" points="1835.7447,-523.1 2317.9657,-523.1 "/>
<text text-anchor="start" x="1843.7447" y="-506.5" font-family="Times,serif" font-size="14.00" fill="#000000">Internal:</text>
<text text-anchor="start" x="1843.7447" y="-489.7" font-family="Times,serif" font-size="14.00" fill="#000000"> &#160;&#160;&#160;_modifyGasTokens(gasTokens_: address[], enabled_: bool)</text>
<text text-anchor="start" x="1843.7447" y="-472.9" font-family="Times,serif" font-size="14.00" fill="#000000"> &#160;&#160;&#160;_transferAndFundWallet(owner_: address, token_: address, amount_: uint256)</text>
<text text-anchor="start" x="1843.7447" y="-456.1" font-family="Times,serif" font-size="14.00" fill="#000000"> &#160;&#160;&#160;_chargeFee(owner_: address, feeData_: FeeData)</text>
<text text-anchor="start" x="1843.7447" y="-439.3" font-family="Times,serif" font-size="14.00" fill="#000000">External:</text>
<text text-anchor="start" x="1843.7447" y="-422.5" font-family="Times,serif" font-size="14.00" fill="#000000"> &#160;&#160;&#160;getUserGasData(owner_: address, token_: address): (gasData: GasData)</text>
<text text-anchor="start" x="1843.7447" y="-405.7" font-family="Times,serif" font-size="14.00" fill="#000000"> &#160;&#160;&#160;modifyGasTokens(gasTokens_: address[], enabled_: bool)</text>
<text text-anchor="start" x="1843.7447" y="-388.9" font-family="Times,serif" font-size="14.00" fill="#000000">Public:</text>
<text text-anchor="start" x="1843.7447" y="-372.1" font-family="Times,serif" font-size="14.00" fill="#000000"> &#160;&#160;&#160;&lt;&lt;event&gt;&gt; WalletGasFunded(owner: address, token: address, amount: uint256)</text>
<text text-anchor="start" x="1843.7447" y="-355.3" font-family="Times,serif" font-size="14.00" fill="#000000"> &#160;&#160;&#160;&lt;&lt;event&gt;&gt; WalletGasCharged(owner: address, token: address, amount: uint256)</text>
<text text-anchor="start" x="1843.7447" y="-338.5" font-family="Times,serif" font-size="14.00" fill="#000000"> &#160;&#160;&#160;&lt;&lt;event&gt;&gt; GasTokensModified(tokens: address[], enabled: bool)</text>
<text text-anchor="start" x="1843.7447" y="-321.7" font-family="Times,serif" font-size="14.00" fill="#000000"> &#160;&#160;&#160;constructor(gasTokens_: address[], initialOwner_: address)</text>
</g>
<!-- 0&#45;&gt;1 -->
<g id="edge4" class="edge">
<title>0&#45;&gt;1</title>
<path fill="none" stroke="#000000" d="M1809.6042,-276.6927C1818.2941,-282.9229 1827.0569,-289.2055 1835.8412,-295.5034"/>
<polygon fill="none" stroke="#000000" points="1830.1118,-304.3155 1860.611,-313.2623 1842.3479,-287.2486 1830.1118,-304.3155"/>
</g>
<!-- 6 -->
<g id="node10" class="node">
<title>6</title>
<polygon fill="#f2f2f2" stroke="#000000" points="648.9736,-330.3 648.9736,-606.3 1452.7368,-606.3 1452.7368,-330.3 648.9736,-330.3"/>
<text text-anchor="middle" x="1050.8552" y="-589.7" font-family="Times,serif" font-size="14.00" fill="#000000">AyaraWalletManager</text>
<polyline fill="none" stroke="#000000" points="648.9736,-581.5 1452.7368,-581.5 "/>
<text text-anchor="start" x="656.9736" y="-564.9" font-family="Times,serif" font-size="14.00" fill="#000000">Public:</text>
<text text-anchor="start" x="656.9736" y="-548.1" font-family="Times,serif" font-size="14.00" fill="#000000"> &#160;&#160;wallets: mapping(address=&gt;address)</text>
<polyline fill="none" stroke="#000000" points="648.9736,-539.9 1452.7368,-539.9 "/>
<text text-anchor="start" x="656.9736" y="-523.3" font-family="Times,serif" font-size="14.00" fill="#000000">Internal:</text>
<text text-anchor="start" x="656.9736" y="-506.5" font-family="Times,serif" font-size="14.00" fill="#000000"> &#160;&#160;&#160;_createWalletIfNotExists(owner_: address, chainId_: uint256, salt_: bytes32): address</text>
<text text-anchor="start" x="656.9736" y="-489.7" font-family="Times,serif" font-size="14.00" fill="#000000"> &#160;&#160;&#160;_createWallet(owner_: address, chainId_: uint256, salt_: bytes32): address</text>
<text text-anchor="start" x="656.9736" y="-472.9" font-family="Times,serif" font-size="14.00" fill="#000000"> &#160;&#160;&#160;_createWallet(owner_: address, callbacks_: bytes[], chainId: uint256, salt: bytes32): address</text>
<text text-anchor="start" x="656.9736" y="-456.1" font-family="Times,serif" font-size="14.00" fill="#000000"> &#160;&#160;&#160;_executeUserOperationThisChain(owner_: address, wallet_: address, transaction_: Transaction): (success: bool)</text>
<text text-anchor="start" x="656.9736" y="-439.3" font-family="Times,serif" font-size="14.00" fill="#000000"> &#160;&#160;&#160;_executeUserOperationOtherChain(owner_: address, wallet_: address, transaction_: Transaction)</text>
<text text-anchor="start" x="656.9736" y="-422.5" font-family="Times,serif" font-size="14.00" fill="#000000"> &#160;&#160;&#160;_calculateWalletAddress(owner_: address, chainId: uint256, salt: bytes32): address</text>
<text text-anchor="start" x="656.9736" y="-405.7" font-family="Times,serif" font-size="14.00" fill="#000000">Public:</text>
<text text-anchor="start" x="656.9736" y="-388.9" font-family="Times,serif" font-size="14.00" fill="#000000"> &#160;&#160;&#160;&lt;&lt;event&gt;&gt; WalletCreated(owner: address, wallet: address)</text>
<text text-anchor="start" x="656.9736" y="-372.1" font-family="Times,serif" font-size="14.00" fill="#000000"> &#160;&#160;&#160;&lt;&lt;event&gt;&gt; OperationExecuted(owner: address, wallet: address, to: address, value: uint256, data: bytes, signature: bytes)</text>
<text text-anchor="start" x="656.9736" y="-355.3" font-family="Times,serif" font-size="14.00" fill="#000000"> &#160;&#160;&#160;&lt;&lt;event&gt;&gt; OperationExecutionSent(owner: address, wallet: address, to: address, destinationChainId: uint64, data: bytes, signature: bytes)</text>
<text text-anchor="start" x="656.9736" y="-338.5" font-family="Times,serif" font-size="14.00" fill="#000000"> &#160;&#160;&#160;constructor(link_: address, router_: address)</text>
</g>
<!-- 0&#45;&gt;6 -->
<g id="edge5" class="edge">
<title>0&#45;&gt;6</title>
<path fill="none" stroke="#000000" d="M1379.6901,-276.6927C1357.9418,-289.3651 1335.8224,-302.2537 1313.8643,-315.0484"/>
<polygon fill="none" stroke="#000000" points="1308.3319,-306.1196 1287.6975,-330.2954 1318.9044,-324.264 1308.3319,-306.1196"/>
</g>
<!-- 9 -->
<g id="node13" class="node">
<title>9</title>
<polygon fill="#f2f2f2" stroke="#000000" points="504.7272,-1286.1 504.7272,-1444.5 608.9832,-1444.5 608.9832,-1286.1 504.7272,-1286.1"/>
<text text-anchor="middle" x="556.8552" y="-1427.9" font-family="Times,serif" font-size="14.00" fill="#000000">&lt;&lt;Struct&gt;&gt;</text>
<text text-anchor="middle" x="556.8552" y="-1411.1" font-family="Times,serif" font-size="14.00" fill="#000000">Message</text>
<polyline fill="none" stroke="#000000" points="504.7272,-1402.9 608.9832,-1402.9 "/>
<text text-anchor="start" x="512.7272" y="-1386.3" font-family="Times,serif" font-size="14.00" fill="#000000">owner: address</text>
<text text-anchor="start" x="512.7272" y="-1369.5" font-family="Times,serif" font-size="14.00" fill="#000000">wallet: address</text>
<text text-anchor="start" x="512.7272" y="-1352.7" font-family="Times,serif" font-size="14.00" fill="#000000">to: address</text>
<text text-anchor="start" x="512.7272" y="-1335.9" font-family="Times,serif" font-size="14.00" fill="#000000">data: bytes</text>
<text text-anchor="start" x="512.7272" y="-1319.1" font-family="Times,serif" font-size="14.00" fill="#000000">signature: bytes</text>
<polyline fill="none" stroke="#000000" points="504.7272,-1310.9 608.9832,-1310.9 "/>
<text text-anchor="middle" x="556.8552" y="-1294.3" font-family="Times,serif" font-size="14.00" fill="#000000"> </text>
</g>
<!-- 0&#45;&gt;9 -->
<g id="edge8" class="edge">
<title>0&#45;&gt;9</title>
<path fill="none" stroke="#000000" stroke-dasharray="5,2" d="M1627.3878,-276.7143C1643.3829,-387.0114 1683.4934,-536.9346 1783.8552,-623.6 1849.5663,-680.3435 1915.9867,-596.7228 1975.8552,-659.6 2061.5436,-749.5948 1934.238,-841.192 2013.8552,-936.6 2046.8136,-976.0952 2093.6635,-930.9516 2123.8552,-972.6 2196.1121,-1072.2759 2207.6416,-1159.3992 2123.8552,-1249.6 2071.7331,-1305.7124 904.9048,-1352.4229 619.4462,-1363.0375"/>
<polygon fill="#000000" stroke="#000000" points="619.1343,-1359.5466 609.2708,-1363.4145 619.3935,-1366.5418 619.1343,-1359.5466"/>
</g>
<!-- 10 -->
<g id="node14" class="node">
<title>10</title>
<polygon fill="#f2f2f2" stroke="#000000" points="0,-1031.9 0,-1190.3 165.7104,-1190.3 165.7104,-1031.9 0,-1031.9"/>
<text text-anchor="middle" x="82.8552" y="-1173.7" font-family="Times,serif" font-size="14.00" fill="#000000">&lt;&lt;Struct&gt;&gt;</text>
<text text-anchor="middle" x="82.8552" y="-1156.9" font-family="Times,serif" font-size="14.00" fill="#000000">Transaction</text>
<polyline fill="none" stroke="#000000" points="0,-1148.7 165.7104,-1148.7 "/>
<text text-anchor="start" x="8" y="-1132.1" font-family="Times,serif" font-size="14.00" fill="#000000">destinationChainId: uint64</text>
<text text-anchor="start" x="8" y="-1115.3" font-family="Times,serif" font-size="14.00" fill="#000000">to: address</text>
<text text-anchor="start" x="8" y="-1098.5" font-family="Times,serif" font-size="14.00" fill="#000000">value: uint256</text>
<text text-anchor="start" x="8" y="-1081.7" font-family="Times,serif" font-size="14.00" fill="#000000">data: bytes</text>
<text text-anchor="start" x="8" y="-1064.9" font-family="Times,serif" font-size="14.00" fill="#000000">signature: bytes</text>
<polyline fill="none" stroke="#000000" points="0,-1056.7 165.7104,-1056.7 "/>
<text text-anchor="middle" x="82.8552" y="-1040.1" font-family="Times,serif" font-size="14.00" fill="#000000"> </text>
</g>
<!-- 0&#45;&gt;10 -->
<g id="edge7" class="edge">
<title>0&#45;&gt;10</title>
<path fill="none" stroke="#000000" stroke-dasharray="5,2" d="M1249.5265,-165.3589C1061.5196,-188.6329 832.3329,-232.0464 639.8552,-313 395.3018,-415.856 293.3462,-433.9278 153.8552,-659.6 85.2547,-770.5837 75.4878,-925.2667 77.2777,-1021.7247"/>
<polygon fill="#000000" stroke="#000000" points="73.779,-1021.8257 77.509,-1031.7422 80.7771,-1021.664 73.779,-1021.8257"/>
</g>
<!-- 11 -->
<g id="node15" class="node">
<title>11</title>
<polygon fill="#f2f2f2" stroke="#000000" points="2022.7714,-744.1 2022.7714,-852.1 2130.939,-852.1 2130.939,-744.1 2022.7714,-744.1"/>
<text text-anchor="middle" x="2076.8552" y="-835.5" font-family="Times,serif" font-size="14.00" fill="#000000">&lt;&lt;Struct&gt;&gt;</text>
<text text-anchor="middle" x="2076.8552" y="-818.7" font-family="Times,serif" font-size="14.00" fill="#000000">FeeData</text>
<polyline fill="none" stroke="#000000" points="2022.7714,-810.5 2130.939,-810.5 "/>
<text text-anchor="start" x="2030.7714" y="-793.9" font-family="Times,serif" font-size="14.00" fill="#000000">token: address</text>
<text text-anchor="start" x="2030.7714" y="-777.1" font-family="Times,serif" font-size="14.00" fill="#000000">amount: uint256</text>
<polyline fill="none" stroke="#000000" points="2022.7714,-768.9 2130.939,-768.9 "/>
<text text-anchor="middle" x="2076.8552" y="-752.3" font-family="Times,serif" font-size="14.00" fill="#000000"> </text>
</g>
<!-- 0&#45;&gt;11 -->
<g id="edge6" class="edge">
<title>0&#45;&gt;11</title>
<path fill="none" stroke="#000000" stroke-dasharray="5,2" d="M1762.5295,-276.6907C1770.583,-288.3974 1777.8299,-300.5427 1783.8552,-313 1844.5356,-438.4567 1731.1964,-522.2546 1826.8552,-623.6 1883.4539,-683.5633 1943.4554,-609.3817 2008.8552,-659.6 2032.9918,-678.1337 2049.0976,-707.4931 2059.5469,-734.4202"/>
<polygon fill="#000000" stroke="#000000" points="2056.2693,-735.6482 2063.011,-743.8214 2062.8376,-733.228 2056.2693,-735.6482"/>
</g>
<!-- 1&#45;&gt;11 -->
<g id="edge9" class="edge">
<title>1&#45;&gt;11</title>
<path fill="none" stroke="#000000" stroke-dasharray="5,2" d="M2076.8552,-623.5428C2076.8552,-662.4193 2076.8552,-702.014 2076.8552,-733.644"/>
<polygon fill="#000000" stroke="#000000" points="2073.3553,-734.0527 2076.8552,-744.0528 2080.3553,-734.0528 2073.3553,-734.0527"/>
</g>
<!-- 1struct0 -->
<g id="node3" class="node">
<title>1struct0</title>
<polygon fill="#f2f2f2" stroke="#000000" points="2169.4265,-105.3 2169.4265,-171.7 2426.2839,-171.7 2426.2839,-105.3 2169.4265,-105.3"/>
<text text-anchor="middle" x="2297.8552" y="-155.1" font-family="Times,serif" font-size="14.00" fill="#000000">&lt;&lt;struct&gt;&gt;</text>
<text text-anchor="middle" x="2297.8552" y="-138.3" font-family="Times,serif" font-size="14.00" fill="#000000">UserGasData</text>
<polyline fill="none" stroke="#000000" points="2169.4265,-130.1 2426.2839,-130.1 "/>
<text text-anchor="start" x="2177.4265" y="-113.5" font-family="Times,serif" font-size="14.00" fill="#000000">gasReserves: mapping(address=&gt;GasData)</text>
</g>
<!-- 1struct0&#45;&gt;1 -->
<g id="edge1" class="edge">
<title>1struct0&#45;&gt;1</title>
<path fill="none" stroke="#000000" d="M2275.4483,-171.9379C2254.2557,-203.5639 2220.7952,-253.4972 2187.337,-303.4271"/>
<polygon fill="#000000" stroke="#000000" points="2187.3292,-303.4389 2187.312,-310.65 2180.649,-313.4076 2180.6662,-306.1965 2187.3292,-303.4389"/>
</g>
<!-- 1struct1 -->
<g id="node4" class="node">
<title>1struct1</title>
<polygon fill="#f2f2f2" stroke="#000000" points="2002.1655,-88.5 2002.1655,-188.5 2151.5449,-188.5 2151.5449,-88.5 2002.1655,-88.5"/>
<text text-anchor="middle" x="2076.8552" y="-171.9" font-family="Times,serif" font-size="14.00" fill="#000000">&lt;&lt;struct&gt;&gt;</text>
<text text-anchor="middle" x="2076.8552" y="-155.1" font-family="Times,serif" font-size="14.00" fill="#000000">GasData</text>
<polyline fill="none" stroke="#000000" points="2002.1655,-146.9 2151.5449,-146.9 "/>
<text text-anchor="start" x="2010.1655" y="-130.3" font-family="Times,serif" font-size="14.00" fill="#000000">totalAmount: uint256</text>
<text text-anchor="start" x="2010.1655" y="-113.5" font-family="Times,serif" font-size="14.00" fill="#000000">lockedAmount: uint256</text>
<text text-anchor="start" x="2010.1655" y="-96.7" font-family="Times,serif" font-size="14.00" fill="#000000">usedAmount: uint256</text>
</g>
<!-- 1struct1&#45;&gt;1 -->
<g id="edge2" class="edge">
<title>1struct1&#45;&gt;1</title>
<path fill="none" stroke="#000000" d="M2076.8552,-188.5895C2076.8552,-219.0948 2076.8552,-260.0066 2076.8552,-301.1083"/>
<polygon fill="#000000" stroke="#000000" points="2076.8553,-301.2758 2080.8552,-307.2758 2076.8552,-313.2758 2072.8552,-307.2757 2076.8553,-301.2758"/>
</g>
<!-- 2 -->
<g id="node5" class="node">
<title>2</title>
<polygon fill="#f2f2f2" stroke="#000000" points="329.4115,-727.3 329.4115,-868.9 784.2989,-868.9 784.2989,-727.3 329.4115,-727.3"/>
<text text-anchor="middle" x="556.8552" y="-852.3" font-family="Times,serif" font-size="14.00" fill="#000000">AyaraMessageHandler</text>
<polyline fill="none" stroke="#000000" points="329.4115,-844.1 784.2989,-844.1 "/>
<text text-anchor="start" x="337.4115" y="-827.5" font-family="Times,serif" font-size="14.00" fill="#000000">Public:</text>
<text text-anchor="start" x="337.4115" y="-810.7" font-family="Times,serif" font-size="14.00" fill="#000000"> &#160;&#160;chainIdToChainSelector: mapping(uint64=&gt;uint64)</text>
<polyline fill="none" stroke="#000000" points="329.4115,-802.5 784.2989,-802.5 "/>
<text text-anchor="start" x="337.4115" y="-785.9" font-family="Times,serif" font-size="14.00" fill="#000000">Internal:</text>
<text text-anchor="start" x="337.4115" y="-769.1" font-family="Times,serif" font-size="14.00" fill="#000000"> &#160;&#160;&#160;_routeMessage(owner_: address, wallet: address, transaction_: Transaction)</text>
<text text-anchor="start" x="337.4115" y="-752.3" font-family="Times,serif" font-size="14.00" fill="#000000">Public:</text>
<text text-anchor="start" x="337.4115" y="-735.5" font-family="Times,serif" font-size="14.00" fill="#000000"> &#160;&#160;&#160;constructor(router_: address, link_: address)</text>
</g>
<!-- 3 -->
<g id="node6" class="node">
<title>3</title>
<polygon fill="#f2f2f2" stroke="#000000" points="222.0581,-973.1 222.0581,-1249.1 891.6523,-1249.1 891.6523,-973.1 222.0581,-973.1"/>
<text text-anchor="middle" x="556.8552" y="-1232.5" font-family="Times,serif" font-size="14.00" fill="#000000">AyaraReceiver</text>
<polyline fill="none" stroke="#000000" points="222.0581,-1224.3 891.6523,-1224.3 "/>
<text text-anchor="start" x="230.0581" y="-1207.7" font-family="Times,serif" font-size="14.00" fill="#000000">Public:</text>
<text text-anchor="start" x="230.0581" y="-1190.9" font-family="Times,serif" font-size="14.00" fill="#000000"> &#160;&#160;latestMessageId: bytes32</text>
<text text-anchor="start" x="230.0581" y="-1174.1" font-family="Times,serif" font-size="14.00" fill="#000000"> &#160;&#160;latestSourceChainSelector: uint64</text>
<text text-anchor="start" x="230.0581" y="-1157.3" font-family="Times,serif" font-size="14.00" fill="#000000"> &#160;&#160;latestSender: address</text>
<text text-anchor="start" x="230.0581" y="-1140.5" font-family="Times,serif" font-size="14.00" fill="#000000"> &#160;&#160;latestMessage: string</text>
<polyline fill="none" stroke="#000000" points="222.0581,-1132.3 891.6523,-1132.3 "/>
<text text-anchor="start" x="230.0581" y="-1115.7" font-family="Times,serif" font-size="14.00" fill="#000000">Internal:</text>
<text text-anchor="start" x="230.0581" y="-1098.9" font-family="Times,serif" font-size="14.00" fill="#000000"> &#160;&#160;&#160;_ccipReceive(message: Client.Any2EVMMessage)</text>
<text text-anchor="start" x="230.0581" y="-1082.1" font-family="Times,serif" font-size="14.00" fill="#000000"> &#160;&#160;&#160;_handleReceive(message: Client.Any2EVMMessage): (decodedMessage: Message)</text>
<text text-anchor="start" x="230.0581" y="-1065.3" font-family="Times,serif" font-size="14.00" fill="#000000">External:</text>
<text text-anchor="start" x="230.0581" y="-1048.5" font-family="Times,serif" font-size="14.00" fill="#000000"> &#160;&#160;&#160;ccipReceive(uint64, message: Client.Any2EVMMessage)</text>
<text text-anchor="start" x="230.0581" y="-1031.7" font-family="Times,serif" font-size="14.00" fill="#000000">Public:</text>
<text text-anchor="start" x="230.0581" y="-1014.9" font-family="Times,serif" font-size="14.00" fill="#000000"> &#160;&#160;&#160;&lt;&lt;event&gt;&gt; MessageReceived(latestMessageId: bytes32, latestSourceChainSelector: uint64, latestSender: address)</text>
<text text-anchor="start" x="230.0581" y="-998.1" font-family="Times,serif" font-size="14.00" fill="#000000"> &#160;&#160;&#160;constructor(router_: address)</text>
<text text-anchor="start" x="230.0581" y="-981.3" font-family="Times,serif" font-size="14.00" fill="#000000"> &#160;&#160;&#160;getLatestMessageDetails(): (bytes32, uint64, address, string)</text>
</g>
<!-- 2&#45;&gt;3 -->
<g id="edge11" class="edge">
<title>2&#45;&gt;3</title>
<path fill="none" stroke="#000000" d="M556.8552,-869.1245C556.8552,-891.228 556.8552,-916.6129 556.8552,-942.4421"/>
<polygon fill="none" stroke="#000000" points="546.3553,-942.7975 556.8552,-972.7975 567.3553,-942.7975 546.3553,-942.7975"/>
</g>
<!-- 4 -->
<g id="node7" class="node">
<title>4</title>
<polygon fill="#f2f2f2" stroke="#000000" points="909.2871,-1023.5 909.2871,-1198.7 1288.4233,-1198.7 1288.4233,-1023.5 909.2871,-1023.5"/>
<text text-anchor="middle" x="1098.8552" y="-1182.1" font-family="Times,serif" font-size="14.00" fill="#000000">AyaraSender</text>
<polyline fill="none" stroke="#000000" points="909.2871,-1173.9 1288.4233,-1173.9 "/>
<text text-anchor="start" x="917.2871" y="-1157.3" font-family="Times,serif" font-size="14.00" fill="#000000">Public:</text>
<text text-anchor="start" x="917.2871" y="-1140.5" font-family="Times,serif" font-size="14.00" fill="#000000"> &#160;&#160;router: address</text>
<text text-anchor="start" x="917.2871" y="-1123.7" font-family="Times,serif" font-size="14.00" fill="#000000"> &#160;&#160;link: address</text>
<polyline fill="none" stroke="#000000" points="909.2871,-1115.5 1288.4233,-1115.5 "/>
<text text-anchor="start" x="917.2871" y="-1098.9" font-family="Times,serif" font-size="14.00" fill="#000000">Internal:</text>
<text text-anchor="start" x="917.2871" y="-1082.1" font-family="Times,serif" font-size="14.00" fill="#000000"> &#160;&#160;&#160;_sendMessage(destinationChainSelector: uint64, data_: bytes)</text>
<text text-anchor="start" x="917.2871" y="-1065.3" font-family="Times,serif" font-size="14.00" fill="#000000">Public:</text>
<text text-anchor="start" x="917.2871" y="-1048.5" font-family="Times,serif" font-size="14.00" fill="#000000"> &#160;&#160;&#160;&lt;&lt;event&gt;&gt; MessageSent(messageId: bytes32)</text>
<text text-anchor="start" x="917.2871" y="-1031.7" font-family="Times,serif" font-size="14.00" fill="#000000"> &#160;&#160;&#160;constructor(router_: address, link_: address)</text>
</g>
<!-- 2&#45;&gt;4 -->
<g id="edge10" class="edge">
<title>2&#45;&gt;4</title>
<path fill="none" stroke="#000000" d="M667.369,-868.9829C706.4155,-892.3171 751.231,-917.2213 793.8552,-936.6 839.5312,-957.3662 856.0634,-949.9897 900.8552,-972.6 920.7099,-982.6224 940.8331,-994.4338 960.262,-1006.8634"/>
<polygon fill="none" stroke="#000000" points="954.5127,-1015.6497 985.3224,-1023.461 966.1085,-998.1415 954.5127,-1015.6497"/>
</g>
<!-- 2&#45;&gt;9 -->
<g id="edge13" class="edge">
<title>2&#45;&gt;9</title>
<path fill="none" stroke="#000000" stroke-dasharray="5,2" d="M408.3316,-869.1106C318.0298,-912.9981 218.8889,-962.7738 212.8552,-972.6 180.6454,-1025.0559 176.9305,-1199.615 212.8552,-1249.6 246.1837,-1295.9727 404.7804,-1334.6824 494.5404,-1353.3317"/>
<polygon fill="#000000" stroke="#000000" points="494.1007,-1356.8144 504.6004,-1355.3979 495.509,-1349.9576 494.1007,-1356.8144"/>
</g>
<!-- 2&#45;&gt;10 -->
<g id="edge12" class="edge">
<title>2&#45;&gt;10</title>
<path fill="none" stroke="#000000" stroke-dasharray="5,2" d="M415.6246,-869.0619C369.7805,-891.4043 318.4621,-915.6905 270.8552,-936.6 231.0327,-954.0905 213.9936,-945.6497 179.8552,-972.6 161.9919,-986.702 146.052,-1004.9649 132.5088,-1023.5751"/>
<polygon fill="#000000" stroke="#000000" points="129.5744,-1021.6628 126.6553,-1031.8476 135.2885,-1025.7061 129.5744,-1021.6628"/>
</g>
<!-- 3&#45;&gt;9 -->
<g id="edge14" class="edge">
<title>3&#45;&gt;9</title>
<path fill="none" stroke="#000000" stroke-dasharray="5,2" d="M556.8552,-1249.3581C556.8552,-1258.2163 556.8552,-1267.0016 556.8552,-1275.5402"/>
<polygon fill="#000000" stroke="#000000" points="553.3553,-1275.8213 556.8552,-1285.8213 560.3553,-1275.8214 553.3553,-1275.8213"/>
</g>
<!-- 4enum0 -->
<g id="node8" class="node">
<title>4enum0</title>
<polygon fill="#f2f2f2" stroke="#000000" points="1316.6171,-756.5 1316.6171,-839.7 1399.0933,-839.7 1399.0933,-756.5 1316.6171,-756.5"/>
<text text-anchor="middle" x="1357.8552" y="-823.1" font-family="Times,serif" font-size="14.00" fill="#000000">&lt;&lt;enum&gt;&gt;</text>
<text text-anchor="middle" x="1357.8552" y="-806.3" font-family="Times,serif" font-size="14.00" fill="#000000">PayFeesIn</text>
<polyline fill="none" stroke="#000000" points="1316.6171,-798.1 1399.0933,-798.1 "/>
<text text-anchor="start" x="1324.6171" y="-781.5" font-family="Times,serif" font-size="14.00" fill="#000000">NATIVE: 0</text>
<text text-anchor="start" x="1324.6171" y="-764.7" font-family="Times,serif" font-size="14.00" fill="#000000">LINK: 1</text>
</g>
<!-- 4enum0&#45;&gt;4 -->
<g id="edge3" class="edge">
<title>4enum0&#45;&gt;4</title>
<path fill="none" stroke="#000000" d="M1348.9221,-839.8922C1341.3171,-868.8844 1328.3076,-907.3859 1307.8552,-936.6 1287.7615,-965.3018 1261.7828,-992.0117 1235.0114,-1015.4771"/>
<polygon fill="#000000" stroke="#000000" points="1235.0057,-1015.4819 1233.0665,-1022.4274 1225.9094,-1023.3087 1227.8487,-1016.3632 1235.0057,-1015.4819"/>
</g>
<!-- 5 -->
<g id="node9" class="node">
<title>5</title>
<polygon fill="#f2f2f2" stroke="#000000" points="1417.3036,-660.1 1417.3036,-936.1 1966.4068,-936.1 1966.4068,-660.1 1417.3036,-660.1"/>
<text text-anchor="middle" x="1691.8552" y="-919.5" font-family="Times,serif" font-size="14.00" fill="#000000">AyaraWalletInstance</text>
<polyline fill="none" stroke="#000000" points="1417.3036,-911.3 1966.4068,-911.3 "/>
<text text-anchor="start" x="1425.3036" y="-894.7" font-family="Times,serif" font-size="14.00" fill="#000000">Public:</text>
<text text-anchor="start" x="1425.3036" y="-877.9" font-family="Times,serif" font-size="14.00" fill="#000000"> &#160;&#160;VERSION: uint256</text>
<text text-anchor="start" x="1425.3036" y="-861.1" font-family="Times,serif" font-size="14.00" fill="#000000"> &#160;&#160;ownerAddress: address</text>
<text text-anchor="start" x="1425.3036" y="-844.3" font-family="Times,serif" font-size="14.00" fill="#000000"> &#160;&#160;controllerAddress: address</text>
<text text-anchor="start" x="1425.3036" y="-827.5" font-family="Times,serif" font-size="14.00" fill="#000000"> &#160;&#160;chainId: uint256</text>
<text text-anchor="start" x="1425.3036" y="-810.7" font-family="Times,serif" font-size="14.00" fill="#000000"> &#160;&#160;nonce: uint256</text>
<polyline fill="none" stroke="#000000" points="1417.3036,-802.5 1966.4068,-802.5 "/>
<text text-anchor="start" x="1425.3036" y="-785.9" font-family="Times,serif" font-size="14.00" fill="#000000">Private:</text>
<text text-anchor="start" x="1425.3036" y="-769.1" font-family="Times,serif" font-size="14.00" fill="#000000"> &#160;&#160;&#160;_execute(to: address, value: uint256, data: bytes): (bool, bytes)</text>
<text text-anchor="start" x="1425.3036" y="-752.3" font-family="Times,serif" font-size="14.00" fill="#000000">External:</text>
<text text-anchor="start" x="1425.3036" y="-735.5" font-family="Times,serif" font-size="14.00" fill="#000000"> &#160;&#160;&#160;&lt;&lt;payable&gt;&gt; null()</text>
<text text-anchor="start" x="1425.3036" y="-718.7" font-family="Times,serif" font-size="14.00" fill="#000000"> &#160;&#160;&#160;&lt;&lt;payable&gt;&gt; execute(to: address, value: uint256, data: bytes, signature: bytes): (bool, bytes)</text>
<text text-anchor="start" x="1425.3036" y="-701.9" font-family="Times,serif" font-size="14.00" fill="#000000">Public:</text>
<text text-anchor="start" x="1425.3036" y="-685.1" font-family="Times,serif" font-size="14.00" fill="#000000"> &#160;&#160;&#160;&lt;&lt;modifier&gt;&gt; onlyOwnerOrValidSignature(data: bytes, signature: bytes)</text>
<text text-anchor="start" x="1425.3036" y="-668.3" font-family="Times,serif" font-size="14.00" fill="#000000"> &#160;&#160;&#160;constructor(ownerAddress_: address, controllerAddress_: address, chainId_: uint256)</text>
</g>
<!-- 8 -->
<g id="node12" class="node">
<title>8</title>
<polygon fill="#f2f2f2" stroke="#000000" points="1306.4921,-1031.9 1306.4921,-1190.3 2115.2183,-1190.3 2115.2183,-1031.9 1306.4921,-1031.9"/>
<text text-anchor="middle" x="1710.8552" y="-1173.7" font-family="Times,serif" font-size="14.00" fill="#000000">&lt;&lt;Library&gt;&gt;</text>
<text text-anchor="middle" x="1710.8552" y="-1156.9" font-family="Times,serif" font-size="14.00" fill="#000000">SignatureValidator</text>
<polyline fill="none" stroke="#000000" points="1306.4921,-1148.7 2115.2183,-1148.7 "/>
<text text-anchor="middle" x="1710.8552" y="-1132.1" font-family="Times,serif" font-size="14.00" fill="#000000"> </text>
<polyline fill="none" stroke="#000000" points="1306.4921,-1123.9 2115.2183,-1123.9 "/>
<text text-anchor="start" x="1314.4921" y="-1107.3" font-family="Times,serif" font-size="14.00" fill="#000000">Internal:</text>
<text text-anchor="start" x="1314.4921" y="-1090.5" font-family="Times,serif" font-size="14.00" fill="#000000"> &#160;&#160;&#160;validateSignature(data: bytes, signature: bytes, chainId: uint256, ownerAddress: address, controllerAddress: address, nonce: uint256): bool</text>
<text text-anchor="start" x="1314.4921" y="-1073.7" font-family="Times,serif" font-size="14.00" fill="#000000">Public:</text>
<text text-anchor="start" x="1314.4921" y="-1056.9" font-family="Times,serif" font-size="14.00" fill="#000000"> &#160;&#160;&#160;DOMAIN_SEPARATOR(chainId: uint256): bytes32</text>
<text text-anchor="start" x="1314.4921" y="-1040.1" font-family="Times,serif" font-size="14.00" fill="#000000"> &#160;&#160;&#160;STRUCT_TYPEHASH(): bytes32</text>
</g>
<!-- 5&#45;&gt;8 -->
<g id="edge15" class="edge">
<title>5&#45;&gt;8</title>
<path fill="none" stroke="#000000" stroke-dasharray="5,2" d="M1700.2442,-936.2975C1701.9984,-965.1952 1703.8038,-994.9369 1705.4167,-1021.5085"/>
<polygon fill="#000000" stroke="#000000" points="1701.9254,-1021.7592 1706.025,-1031.5287 1708.9126,-1021.335 1701.9254,-1021.7592"/>
</g>
<!-- 6&#45;&gt;2 -->
<g id="edge16" class="edge">
<title>6&#45;&gt;2</title>
<path fill="none" stroke="#000000" d="M843.8595,-606.4927C791.1159,-641.7049 735.8721,-678.5863 688.0954,-710.4826"/>
<polygon fill="none" stroke="#000000" points="682.2377,-701.7683 663.1171,-727.1584 693.8978,-719.2337 682.2377,-701.7683"/>
</g>
<!-- 6&#45;&gt;5 -->
<g id="edge18" class="edge">
<title>6&#45;&gt;5</title>
<path fill="none" stroke="#000000" stroke-dasharray="5,2" d="M1319.4468,-606.4927C1350.9411,-622.6968 1383.1225,-639.2544 1414.7304,-655.5169"/>
<polygon fill="#000000" stroke="#000000" points="1413.1359,-658.6326 1423.6293,-660.0954 1416.3385,-652.4081 1413.1359,-658.6326"/>
</g>
<!-- 7 -->
<g id="node11" class="node">
<title>7</title>
<polygon fill="#f2f2f2" stroke="#000000" points="802.7727,-702.1 802.7727,-894.1 1298.9377,-894.1 1298.9377,-702.1 802.7727,-702.1"/>
<text text-anchor="middle" x="1050.8552" y="-877.5" font-family="Times,serif" font-size="14.00" fill="#000000">Create2Factory</text>
<polyline fill="none" stroke="#000000" points="802.7727,-869.3 1298.9377,-869.3 "/>
<text text-anchor="middle" x="1050.8552" y="-852.7" font-family="Times,serif" font-size="14.00" fill="#000000"> </text>
<polyline fill="none" stroke="#000000" points="802.7727,-844.5 1298.9377,-844.5 "/>
<text text-anchor="start" x="810.7727" y="-827.9" font-family="Times,serif" font-size="14.00" fill="#000000">Private:</text>
<text text-anchor="start" x="810.7727" y="-811.1" font-family="Times,serif" font-size="14.00" fill="#000000"> &#160;&#160;&#160;_execute(_to: address, _data: bytes): (bool, bytes)</text>
<text text-anchor="start" x="810.7727" y="-794.3" font-family="Times,serif" font-size="14.00" fill="#000000">External:</text>
<text text-anchor="start" x="810.7727" y="-777.5" font-family="Times,serif" font-size="14.00" fill="#000000"> &#160;&#160;&#160;&lt;&lt;payable&gt;&gt; null()</text>
<text text-anchor="start" x="810.7727" y="-760.7" font-family="Times,serif" font-size="14.00" fill="#000000">Public:</text>
<text text-anchor="start" x="810.7727" y="-743.9" font-family="Times,serif" font-size="14.00" fill="#000000"> &#160;&#160;&#160;&lt;&lt;event&gt;&gt; Deployed(salt: bytes32, deployed: address)</text>
<text text-anchor="start" x="810.7727" y="-727.1" font-family="Times,serif" font-size="14.00" fill="#000000"> &#160;&#160;&#160;deploy(amount: uint256, salt: bytes32, bytecode: bytes, callbacks: bytes[]): address</text>
<text text-anchor="start" x="810.7727" y="-710.3" font-family="Times,serif" font-size="14.00" fill="#000000"> &#160;&#160;&#160;computeAddress(salt: bytes32, codeHash: bytes32): address</text>
</g>
<!-- 6&#45;&gt;7 -->
<g id="edge17" class="edge">
<title>6&#45;&gt;7</title>
<path fill="none" stroke="#000000" d="M1050.8552,-606.7314C1050.8552,-628.2867 1050.8552,-650.4615 1050.8552,-671.7304"/>
<polygon fill="none" stroke="#000000" points="1040.3553,-672.0659 1050.8552,-702.066 1061.3553,-672.066 1040.3553,-672.0659"/>
</g>
<!-- 6&#45;&gt;10 -->
<g id="edge19" class="edge">
<title>6&#45;&gt;10</title>
<path fill="none" stroke="#000000" stroke-dasharray="5,2" d="M648.6947,-543.8993C509.7441,-576.2078 375.2399,-616.4262 320.8552,-659.6 259.4513,-708.3461 169.2174,-905.4348 119.3501,-1022.4935"/>
<polygon fill="#000000" stroke="#000000" points="116.0755,-1021.2505 115.3889,-1031.8231 122.5188,-1023.9863 116.0755,-1021.2505"/>
</g>
<!-- 12 -->
<g id="node16" class="node">
<title>12</title>
<polygon fill="#f2f2f2" stroke="#000000" points="2444.4379,-25.7 2444.4379,-251.3 3059.2725,-251.3 3059.2725,-25.7 2444.4379,-25.7"/>
<text text-anchor="middle" x="2751.8552" y="-234.7" font-family="Times,serif" font-size="14.00" fill="#000000">CCIPRouterMock</text>
<polyline fill="none" stroke="#000000" points="2444.4379,-226.5 3059.2725,-226.5 "/>
<text text-anchor="start" x="2452.4379" y="-209.9" font-family="Times,serif" font-size="14.00" fill="#000000">Public:</text>
<text text-anchor="start" x="2452.4379" y="-193.1" font-family="Times,serif" font-size="14.00" fill="#000000"> &#160;&#160;chainSelectorToContract: mapping(uint64=&gt;address)</text>
<text text-anchor="start" x="2452.4379" y="-176.3" font-family="Times,serif" font-size="14.00" fill="#000000"> &#160;&#160;contractToChainSelector: mapping(address=&gt;uint64)</text>
<polyline fill="none" stroke="#000000" points="2444.4379,-168.1 3059.2725,-168.1 "/>
<text text-anchor="start" x="2452.4379" y="-151.5" font-family="Times,serif" font-size="14.00" fill="#000000">External:</text>
<text text-anchor="start" x="2452.4379" y="-134.7" font-family="Times,serif" font-size="14.00" fill="#000000"> &#160;&#160;&#160;&lt;&lt;payable&gt;&gt; ccipSend(destinationChainSelector: uint64, message: Client.EVM2AnyMessage): bytes32</text>
<text text-anchor="start" x="2452.4379" y="-117.9" font-family="Times,serif" font-size="14.00" fill="#000000"> &#160;&#160;&#160;_mockSetChainSelectorsToContracts(chainSelectors: uint64[], contractAddresses: address[])</text>
<text text-anchor="start" x="2452.4379" y="-101.1" font-family="Times,serif" font-size="14.00" fill="#000000"> &#160;&#160;&#160;isChainSupported(chainSelector: uint64): bool</text>
<text text-anchor="start" x="2452.4379" y="-84.3" font-family="Times,serif" font-size="14.00" fill="#000000"> &#160;&#160;&#160;getSupportedTokens(chainSelector: uint64): address[]</text>
<text text-anchor="start" x="2452.4379" y="-67.5" font-family="Times,serif" font-size="14.00" fill="#000000"> &#160;&#160;&#160;getFee(destinationChainSelector: uint64, message: Client.EVM2AnyMessage): uint256</text>
<text text-anchor="start" x="2452.4379" y="-50.7" font-family="Times,serif" font-size="14.00" fill="#000000">Public:</text>
<text text-anchor="start" x="2452.4379" y="-33.9" font-family="Times,serif" font-size="14.00" fill="#000000"> &#160;&#160;&#160;&lt;&lt;event&gt;&gt; MessageSent(messageId: bytes32)</text>
</g>
<!-- 13 -->
<g id="node17" class="node">
<title>13</title>
<polygon fill="#f2f2f2" stroke="#000000" points="3077.3229,-76.1 3077.3229,-200.9 3334.3875,-200.9 3334.3875,-76.1 3077.3229,-76.1"/>
<text text-anchor="middle" x="3205.8552" y="-184.3" font-family="Times,serif" font-size="14.00" fill="#000000">ERC20Mock</text>
<polyline fill="none" stroke="#000000" points="3077.3229,-176.1 3334.3875,-176.1 "/>
<text text-anchor="middle" x="3205.8552" y="-159.5" font-family="Times,serif" font-size="14.00" fill="#000000"> </text>
<polyline fill="none" stroke="#000000" points="3077.3229,-151.3 3334.3875,-151.3 "/>
<text text-anchor="start" x="3085.3229" y="-134.7" font-family="Times,serif" font-size="14.00" fill="#000000">External:</text>
<text text-anchor="start" x="3085.3229" y="-117.9" font-family="Times,serif" font-size="14.00" fill="#000000"> &#160;&#160;&#160;mint(account: address, amount: uint256)</text>
<text text-anchor="start" x="3085.3229" y="-101.1" font-family="Times,serif" font-size="14.00" fill="#000000">Public:</text>
<text text-anchor="start" x="3085.3229" y="-84.3" font-family="Times,serif" font-size="14.00" fill="#000000"> &#160;&#160;&#160;constructor()</text>
</g>
</g>
</svg>
